<svg width="170" height="41.000000" viewBox="0 0 88 22" fill="none">
	<g clip-path="url(#clip168_3348)">
		<path id="path" d="M0 3.94427L4.49414 3.94427L7.1499 15.4157L10.293 3.94427L14.0015 3.94427L17.0342 15.4471L19.8315 3.94427L24.3257 3.94427L19.2969 21.23L15.3843 21.23L12.2412 10.5757L8.94141 21.23L4.99707 21.23L0 3.94427Z" fill-rule="nonzero" fill="#3FA9F5"/>
		<path id="path" d="M30.0459 21.2457L26.0229 21.2457L26.0229 3.96002L29.8574 3.96002L29.8574 10.6386C30.1592 9.82465 30.8174 9.18329 31.5479 8.71454C32.2788 8.24579 33.0771 8.04382 33.9429 8.10858C35.2788 8.06812 36.4019 8.53748 37.3115 9.51678C38.2217 10.4961 38.6074 11.6505 38.4688 12.98L38.4688 21.2457L34.4302 21.2457L34.4302 13.75C34.5259 13.1092 34.3555 12.5495 33.9185 12.0709C33.4814 11.5923 32.9399 11.3716 32.293 11.4086C31.6294 11.3805 31.0708 11.6091 30.6172 12.0945C30.1636 12.5798 29.9731 13.1526 30.0459 13.8129L30.0459 21.2457Z" fill-rule="nonzero" fill="#3FA9F5"/>
		<path id="path" d="M40.4956 14.8028C40.4185 13.909 40.5308 13.0397 40.833 12.1949C41.1348 11.3502 41.5986 10.6064 42.2246 9.96387C42.8506 9.32123 43.582 8.83801 44.4185 8.5141C45.2554 8.19019 46.1211 8.05499 47.0166 8.10852C47.9116 8.05768 48.7769 8.19464 49.6118 8.51947C50.4473 8.8443 51.1777 9.32764 51.8027 9.9696C52.4282 10.6116 52.8926 11.3543 53.1953 12.1978C53.498 13.0413 53.6123 13.9097 53.5381 14.8028C53.6128 15.6953 53.4985 16.563 53.1953 17.4058C52.8926 18.2486 52.4282 18.9904 51.8022 19.6312C51.1768 20.272 50.4463 20.7538 49.6108 21.0768C48.7754 21.3998 47.9106 21.5346 47.0166 21.4814C46.1226 21.5346 45.2583 21.3998 44.4229 21.0768C43.5874 20.7538 42.8569 20.272 42.231 19.6312C41.6055 18.9904 41.1411 18.2486 40.8379 17.4058C40.5352 16.563 40.4209 15.6953 40.4956 14.8028ZM49.4209 14.8028C49.4209 12.6342 48.5728 11.1257 47.0327 11.1257C45.4927 11.1257 44.5967 12.5714 44.5967 14.7714C44.5967 16.9714 45.4609 18.4485 47.0327 18.4485C48.604 18.4485 49.4209 16.9714 49.4209 14.8028Z" fill-rule="nonzero" fill="#3FA9F5"/>
		<path id="path" d="M55.644 3.94427L67.3667 3.94427L67.3667 7.2757L59.7139 7.2757L59.7139 11L66.6128 11L66.6128 14.2528L59.7139 14.2528L59.7139 21.2457L55.644 21.2457L55.644 3.94427Z" fill-rule="nonzero" fill="#3FA9F5"/>
		<path id="path" d="M69.4414 8.28143L73.48 8.28143L73.48 21.2457L69.4414 21.2457L69.4414 8.28143Z" fill-rule="nonzero" fill="#3FA9F5"/>
		<path id="path" d="M80.1426 21.2457L76.0566 21.2457L76.0566 8.28143L79.8911 8.28143L79.8911 10.6385C80.5903 8.83618 82.0469 7.99286 83.9766 8.10858C85.3086 8.07227 86.4268 8.54388 87.3301 9.52338C88.2339 10.5029 88.6143 11.6551 88.4707 12.98L88.4707 21.2457L84.4482 21.2457L84.4482 13.75C84.5366 13.1144 84.3657 12.5588 83.9346 12.0833C83.5039 11.6077 82.9678 11.3828 82.3267 11.4086C81.6753 11.4 81.1309 11.6367 80.6929 12.1187C80.2549 12.6008 80.0713 13.1655 80.1426 13.8129L80.1426 21.2457Z" fill-rule="nonzero" fill="#3FA9F5"/>
		<path id="path" d="M69.4414 5.68854C69.4458 6.04285 69.4824 6.3938 69.5513 6.74139C69.9043 6.81006 70.2603 6.84674 70.6196 6.85144C72.1875 6.84711 73.5249 6.28986 74.6323 5.17975C75.7393 4.06958 76.2925 2.73065 76.2925 1.16284C76.2959 0.807739 76.2588 0.456787 76.1826 0.109985C75.3501 -0.0585327 74.522 -0.0394897 73.6978 0.167236C72.874 0.373962 72.1348 0.748108 71.48 1.28967C70.8257 1.8313 70.3198 2.48749 69.9624 3.25824C69.6055 4.02899 69.4316 4.83911 69.4414 5.68854Z" fill-rule="nonzero" fill="#3FA9F5"/>
	</g>
</svg>
