<?xml version="1.0" encoding="utf-8"?>
<svg version="1.1" x="0px" y="0px"
	 viewBox="0 0 500 500" style="enable-background:new 0 0 500 500;" xml:space="preserve">
<style type="text/css">
	.st2{display:none;}
	.st3{display:inline;opacity:0.3;}
	.st4{fill:none;stroke:#000000;stroke-miterlimit:10;}
	.st5{opacity:0.3;}
	.st6{fill:none;stroke:#263238;stroke-miterlimit:10;}
	.st7{fill:#263238;}
	.st8{fill:#92E3A9;}
	.st9{fill:none;stroke:#263238;stroke-linecap:round;stroke-linejoin:round;stroke-miterlimit:10;}
	.st10{fill:#263238;stroke:#263238;stroke-linecap:round;stroke-linejoin:round;stroke-miterlimit:10;}
	.st11{fill:#ABABAB;stroke:#263238;stroke-linecap:round;stroke-linejoin:round;stroke-miterlimit:10;}
	.st12{fill:#FFFFFF;stroke:#263238;stroke-linecap:round;stroke-linejoin:round;stroke-miterlimit:10;}
	.st13{fill:#FFFFFF;stroke:#263238;stroke-miterlimit:10;}
	.st14{fill:#93BBE2;stroke:#263238;stroke-miterlimit:10;}
	.st15{fill:#263238;stroke:#263238;stroke-miterlimit:10;}
	.st16{fill:none;stroke:#8F8F8F;stroke-miterlimit:10;}
</style>

<g id="Clock" class="st2">
	<g class="st3">
		
			<ellipse transform="matrix(0.7071 -0.7071 0.7071 0.7071 -53.4264 80.6695)" class="st4" cx="70.66" cy="104.83" rx="36.28" ry="36.28"/>
		<circle class="st4" cx="70.66" cy="104.83" r="33.81"/>
		<polyline class="st4" points="77.1,114.98 70.66,104.83 42.95,104.83 		"/>
	</g>
</g>
<g id="Window">
	<g class="st5">
		<rect x="339.94" y="69.08" class="st4" width="36.85" height="75"/>
		<rect x="381.32" y="69.08" class="st4" width="36.85" height="75"/>
		<rect x="422.7" y="69.08" class="st4" width="36.85" height="75"/>
		<rect x="339.94" y="147.95" class="st4" width="36.85" height="75"/>
		<rect x="381.32" y="147.95" class="st4" width="36.85" height="75"/>
		<rect x="422.7" y="147.95" class="st4" width="36.85" height="75"/>
		<rect x="339.94" y="226.83" class="st4" width="36.85" height="75"/>
		<rect x="381.32" y="226.83" class="st4" width="36.85" height="75"/>
		<rect x="422.7" y="226.83" class="st4" width="36.85" height="75"/>
		<rect x="339.94" y="305.71" class="st4" width="36.85" height="75"/>
		<rect x="381.32" y="305.71" class="st4" width="36.85" height="75"/>
		<rect x="422.7" y="305.71" class="st4" width="36.85" height="75"/>
	</g>
</g>
<g id="Floor">
	<line class="st6" x1="25.94" y1="388.51" x2="492.71" y2="388.51"/>
</g>
<g id="Plant">
	<g>
		<g>
			<path class="st7" d="M55.58,288.17L55.58,288.17c-0.02-0.05,0-0.1,0.04-0.12c0.04-0.02,0.09,0,0.11,0.04
				c2.61,6.02,4.44,12.34,5.97,18.72c1.48,6.39,2.55,12.88,3.3,19.41l0.47,4.91c0.07,0.82,0.16,1.64,0.22,2.46l0.13,2.46
				c0.07,1.64,0.17,3.28,0.22,4.93L66,345.91l-0.05,2.46c-0.04,0.82-0.1,1.64-0.15,2.46c-0.12,1.64-0.22,3.28-0.37,4.91
				c-0.31,3.27-0.81,6.52-1.31,9.76c-0.01,0.04-0.04,0.07-0.09,0.07c-0.05,0-0.09-0.04-0.09-0.09v0c0.01-1.64,0.08-3.28,0.11-4.91
				c0.05-1.63,0.19-3.26,0.17-4.89c-0.01-1.63,0.04-3.26,0.05-4.89l0.05-2.44l-0.04-2.44l-0.02-4.88l-0.13-4.88l-0.05-2.44
				c-0.03-0.81-0.09-1.63-0.14-2.44l-0.3-4.88c-0.57-6.49-1.46-12.96-2.76-19.36C59.57,300.62,57.97,294.25,55.58,288.17z"/>
			<path class="st7" d="M54.88,313.71c-0.01-0.04,0.01-0.09,0.05-0.11c0.05-0.02,0.09,0.01,0.11,0.05
				c1.41,4.06,2.53,8.21,3.48,12.41c0.91,4.2,1.62,8.46,2.05,12.75c0.43,4.27,0.91,8.55,0.97,12.85c0.07,4.3,0,8.6-0.46,12.89
				c0,0.04-0.04,0.07-0.08,0.08c-0.05,0.01-0.09-0.03-0.1-0.08c-0.5-4.28-0.8-8.55-1.1-12.82c-0.3-4.27-0.34-8.54-0.62-12.81
				c-0.26-4.25-0.79-8.49-1.52-12.7C56.96,322.02,56.06,317.83,54.88,313.71z"/>
			<path class="st7" d="M40.72,322.7c0.03-0.04,0.08-0.05,0.12-0.03c3.54,2.24,6.71,5.07,9.47,8.26c1.36,1.62,2.62,3.31,3.7,5.15
				l0.76,1.44l0.6,1.49c0.21,0.49,0.36,1,0.52,1.51c0.15,0.51,0.32,1.02,0.46,1.53c1.06,4.1,1.77,8.29,1.96,12.49
				c0.17,4.2,0.09,8.41-0.47,12.58c-0.01,0.04-0.04,0.07-0.08,0.07c-0.05,0-0.09-0.03-0.09-0.08l-1.08-12.45
				c-0.43-4.12-0.69-8.26-1.58-12.28c-0.11-0.5-0.26-0.99-0.38-1.49c-0.13-0.5-0.25-0.99-0.44-1.47l-0.51-1.44l-0.65-1.36
				c-0.96-1.8-2.13-3.52-3.39-5.15c-2.53-3.26-5.5-6.24-8.89-8.65l0,0C40.71,322.79,40.7,322.74,40.72,322.7z"/>
			<path class="st7" d="M47.57,338.7c1.93,1.25,3.22,3.21,4.31,5.18c1.03,2.02,1.85,4.15,2.41,6.34c0.17,0.54,0.3,1.09,0.42,1.64
				l0.39,1.66c0.2,1.11,0.35,2.24,0.42,3.36c0.01,1.13,0.05,2.26-0.03,3.38c-0.09,1.13-0.22,2.25-0.44,3.36
				c-0.01,0.03-0.03,0.06-0.07,0.07c-0.05,0.01-0.09-0.02-0.1-0.07c-0.27-1.11-0.45-2.21-0.6-3.31c-0.17-1.1-0.35-2.19-0.48-3.28
				c-0.16-1.09-0.3-2.17-0.39-3.26c-0.15-1.08-0.23-2.18-0.47-3.25c-0.38-2.16-1-4.27-1.85-6.28c-0.84-2-1.93-3.99-3.62-5.4
				l-0.01-0.01c-0.03-0.03-0.04-0.08-0.02-0.11C47.48,338.69,47.53,338.68,47.57,338.7z"/>
			<path class="st7" d="M67.43,351.18c0.47-5.53,1.38-11,2.24-16.47c0.86-5.47,1.82-10.93,2.82-16.37
				c1.04-5.44,2.12-10.87,3.29-16.28c0.01-0.04,0.05-0.07,0.1-0.07c0.05,0.01,0.08,0.05,0.07,0.1c-0.95,5.45-1.8,10.92-2.61,16.39
				c-0.83,5.47-1.61,10.94-2.3,16.42c-0.68,5.49-1.2,10.98-1.89,16.46l-2.02,16.46c0,0.04-0.04,0.07-0.08,0.08
				c-0.05,0-0.09-0.03-0.09-0.08c-0.06-1.39-0.06-2.77-0.1-4.16c-0.01-1.39,0.06-2.77,0.08-4.16
				C66.99,356.71,67.23,353.94,67.43,351.18z"/>
			<path class="st7" d="M70.75,351.1c0.3-2.19,0.7-4.37,1.12-6.54l0.78-3.23c0.25-1.08,0.5-2.15,0.81-3.22
				c1.1-4.28,2.51-8.49,4.23-12.57l0.66-1.52l0.74-1.49c0.47-1,1.04-1.96,1.57-2.92c1.16-1.88,2.36-3.76,3.99-5.29
				c0.03-0.03,0.09-0.03,0.12,0c0.03,0.03,0.04,0.09,0,0.12l-0.01,0.01c-1.51,1.57-2.61,3.5-3.65,5.41
				c-0.48,0.98-0.99,1.95-1.4,2.96l-0.65,1.5l-0.58,1.54c-1.53,4.09-2.76,8.3-3.68,12.58c-0.5,2.13-0.84,4.3-1.25,6.44l-0.52,3.24
				c-0.19,1.08-0.42,2.15-0.57,3.23c-0.35,2.16-0.74,4.32-1.12,6.48c-0.34,2.17-0.73,4.33-1.19,6.5c-0.01,0.04-0.04,0.07-0.08,0.07
				c-0.05,0-0.09-0.04-0.09-0.09c-0.01-2.21,0.04-4.42,0.15-6.63C70.26,355.49,70.52,353.3,70.75,351.1z"/>
			<path class="st7" d="M75.33,351.38c1.02-2.9,2.21-5.74,3.5-8.52c1.33-2.77,2.76-5.49,4.4-8.07c0.03-0.04,0.08-0.05,0.12-0.03
				c0.04,0.02,0.05,0.08,0.03,0.12c-1.44,2.69-2.66,5.49-3.76,8.33c-1.12,2.83-2.13,5.7-2.98,8.61c-0.86,2.91-1.48,5.88-2.26,8.81
				c-0.81,2.92-1.47,5.88-2.37,8.84c-0.01,0.04-0.04,0.06-0.08,0.06c-0.05,0-0.09-0.04-0.09-0.09c-0.04-3.09,0.26-6.17,0.86-9.2
				C73.24,357.19,74.31,354.28,75.33,351.38z"/>
			<path class="st7" d="M75.51,361.04c0.52-1.82,1.42-3.51,2.43-5.1c1-1.6,2.16-3.12,3.54-4.4c0.71-0.62,1.45-1.21,2.25-1.7
				c0.8-0.5,1.64-0.92,2.56-1.16c0.04-0.01,0.08,0.01,0.1,0.05c0.02,0.04,0,0.09-0.04,0.11l-0.01,0c-1.66,0.74-3.06,1.96-4.24,3.29
				c-1.2,1.34-2.16,2.87-2.95,4.47c-0.84,1.59-1.27,3.34-2,4.98c-0.32,0.84-0.64,1.68-1.01,2.52c-0.32,0.85-0.67,1.71-1.11,2.55l0,0
				c-0.01,0.03-0.04,0.05-0.07,0.05c-0.05,0-0.09-0.04-0.09-0.08c-0.04-0.95,0.02-1.89,0.11-2.83
				C75.1,362.88,75.29,361.96,75.51,361.04z"/>
		</g>
		<path class="st8" d="M75.17,309.97c0,0,9.06-2.09,11.15-11.85c2.09-9.76-4.65-5.58,1.39-20.91c6.04-15.33,4.65-18.82,2.56-23.23
			c-2.09-4.41-3.25-3.02-5.11,2.79c-1.86,5.81-8.6,14.87-11.15,31.82C71.46,305.56,75.17,309.97,75.17,309.97z"/>
		<path class="st8" d="M57.29,293.48c0,0,6.04-2.09,6.27-13.47c0.23-11.38-4.41-9.06-5.11-23.23c-0.7-14.17-1.63-24.16-4.18-24.39
			c-2.56-0.23-9.29,6.97-11.61,22.77c-2.32,15.8,3.02,26.25,7.67,30.9C54.96,290.69,57.29,293.48,57.29,293.48z"/>
		<path class="st8" d="M78.43,323.68c0,0,1.39-8.36,4.18-12.31c2.79-3.95,8.83-7.43,12.78-15.1c3.95-7.67,8.36-11.38,8.13-0.46
			c-0.23,10.92-5.11,16.49-11.15,20.21C86.32,319.73,78.43,323.68,78.43,323.68z"/>
		<path class="st8" d="M80.98,338.08c0,0,5.58-10.69,13.71-18.58c8.13-7.9,14.63-11.85,12.31-7.9c-2.32,3.95-5.11,3.72-9.06,10.69
			c-3.95,6.97-2.79,12.08-8.36,16.03C84,342.26,80.98,338.08,80.98,338.08z"/>
		<path class="st8" d="M81.68,351.78c0.23-0.7,0.46-5.81,8.36-9.99c7.9-4.18,15.33-2.56,14.4-0.46c-0.93,2.09-5.81,5.58-10.69,7.67
			C88.88,351.09,81.68,351.78,81.68,351.78z"/>
		<path class="st8" d="M57.75,324.14c0,0,3.48-4.41,1.63-13.71c-1.86-9.29-6.04-6.97-10.69-11.85c-4.65-4.88-3.72-5.58-8.36-10.69
			c-4.65-5.11-8.83-7.9-10.69-5.81c-1.86,2.09,0.93,8.6,3.72,12.31c2.79,3.72,7.2,5.58,9.29,10.22c2.09,4.65,1.16,12.08,6.5,15.56
			C54.5,323.68,57.75,324.14,57.75,324.14z"/>
		<path class="st8" d="M46.14,326.7c0,0-8.36-9.52-14.4-16.49c-6.04-6.97-8.36-12.31-8.6-7.67c-0.23,4.65-2.09,8.36,2.79,14.4
			C30.8,322.98,46.14,326.7,46.14,326.7z"/>
		<path class="st8" d="M50.55,342.03c0,0,0.23-3.72-13.01-12.31c-13.24-8.6-18.82-10.22-17.42-6.74c1.39,3.48,7.2,6.97,13.47,13.24
			C39.86,342.49,50.55,342.03,50.55,342.03z"/>
		<path class="st9" d="M74.62,308.98c0,0,3.11-16.66,6.36-28.51c3.25-11.85,5.34-19.05,5.34-19.05"/>
		<path class="st9" d="M57.82,293.65c0,0-5.65-18.06-7.5-28.98c-1.86-10.92,0.23-19.05,1.16-23.93"/>
		<path class="st9" d="M79.16,323.33c0,0,3.45-6.16,8.56-12.2c5.11-6.04,9.06-9.29,11.38-15.1"/>
		<path class="st9" d="M57.75,324.14c0,0-1.86-11.15-6.27-16.96c-4.41-5.81-13.24-14.87-16.73-20.67"/>
		<path class="st9" d="M82.22,351.53c0,0,7.82-5.09,13.39-7.88"/>
		<path class="st10" d="M57.73,413.08c-3.63,0-6.64-2.77-6.95-6.38c-1.16-13.79-3.58-44.79-2.33-46.32c5.12-6.24,27.17-6.24,32.29,0
			c1.25,1.53-1.17,32.52-2.33,46.32c-0.3,3.61-3.32,6.38-6.95,6.38H57.73z"/>
	</g>
</g>
<g id="Chair">
	<g>
		<rect x="181.37" y="295.19" class="st10" width="5.42" height="21.68"/>
		<rect x="265.04" y="295.19" class="st10" width="5.42" height="21.68"/>
		<path class="st11" d="M263.94,326.19h-77.92v-94.62c0-3.98,3.23-7.21,7.21-7.21h63.5c3.98,0,7.21,3.23,7.21,7.21V326.19z"/>
		<g>
			<circle class="st12" cx="189.5" cy="409.01" r="4.06"/>
			<path class="st12" d="M229.13,409.01c0-2.24-1.82-4.06-4.06-4.06c-2.25,0-4.06,1.82-4.06,4.06s1.82,4.06,4.06,4.06
				C227.31,413.08,229.13,411.26,229.13,409.01z"/>
			<path class="st12" d="M264.7,409.01c0-2.24-1.82-4.06-4.06-4.06c-2.24,0-4.07,1.82-4.07,4.06s1.82,4.06,4.07,4.06
				C262.88,413.08,264.7,411.26,264.7,409.01z"/>
		</g>
		<polygon class="st10" points="228.74,388.6 228.74,321.62 221.6,321.62 221.6,388.17 221.34,388.35 184.42,403.25 184.42,407.66 
			190.18,407.66 190.18,404.61 222.17,399.9 222.76,407.66 227.03,407.66 227.62,399.95 259.28,404.61 259.28,407.66 265.04,407.66 
			265.04,403.25 		"/>
		<rect x="213.65" y="329.03" class="st10" width="22.67" height="8.03"/>
		<path class="st11" d="M267.58,329.5h-85.19c-1.51,0-2.74-1.23-2.74-2.74v-12.47c0-1.51,1.23-2.74,2.74-2.74h85.19
			c1.51,0,2.74,1.23,2.74,2.74v12.47C270.32,328.27,269.09,329.5,267.58,329.5z"/>
		<path class="st11" d="M183.84,299.25h-6.63c-1.26,0-2.27-1.02-2.27-2.27v-12.05c0-1.26,1.02-2.27,2.27-2.27h6.63
			c1.26,0,2.27,1.02,2.27,2.27v12.05C186.11,298.23,185.09,299.25,183.84,299.25z"/>
		<path class="st11" d="M272.42,299.25h-6.63c-1.26,0-2.27-1.02-2.27-2.27v-12.05c0-1.26,1.02-2.27,2.27-2.27h6.63
			c1.26,0,2.27,1.02,2.27,2.27v12.05C274.69,298.23,273.67,299.25,272.42,299.25z"/>
	</g>
</g>
<g id="Table">
	<g>
		<g>
			
				<rect x="102.86" y="285.7" transform="matrix(-1 -1.224647e-16 1.224647e-16 -1 446.2133 594.8105)" class="st12" width="240.5" height="23.4"/>
			
				<rect x="102.86" y="285.7" transform="matrix(-1 -1.224647e-16 1.224647e-16 -1 446.2133 577.6331)" class="st10" width="240.5" height="6.22"/>
			<polygon class="st12" points="340.82,413.08 344.23,413.08 345.36,285.37 339.68,285.37 			"/>
			<polygon class="st12" points="101.65,413.08 105.06,413.08 106.2,285.37 100.52,285.37 			"/>
			
				<rect x="97.35" y="282.29" transform="matrix(-1 -1.224647e-16 1.224647e-16 -1 446.1585 569.8716)" class="st12" width="251.46" height="5.28"/>
		</g>
		<g>
			
				<rect x="192.84" y="279.49" transform="matrix(-1 -1.224647e-16 1.224647e-16 -1 461.3417 562.1028)" class="st12" width="75.66" height="3.12"/>
			<g>
				
					<rect x="251.5" y="206.98" transform="matrix(-1 -1.224647e-16 1.224647e-16 -1 594.024 475.2926)" class="st10" width="91.03" height="61.34"/>
				
					<rect x="271.15" y="279.16" transform="matrix(-1 -1.224647e-16 1.224647e-16 -1 579.143 561.7697)" class="st11" width="36.84" height="3.46"/>
				
					<rect x="286.03" y="242.9" transform="matrix(-1 -1.224647e-16 1.224647e-16 -1 594.024 525.5123)" class="st11" width="21.96" height="39.71"/>
			</g>
		</g>
	</g>
</g>
<g id="Lines">
	<g>
		<line class="st6" x1="217.69" y1="74.02" x2="227.95" y2="76.58"/>
		<line class="st6" x1="234.36" y1="53.5" x2="237.35" y2="60.34"/>
		<line class="st6" x1="295.07" y1="74.02" x2="284.81" y2="76.58"/>
		<line class="st6" x1="278.39" y1="53.5" x2="275.4" y2="60.34"/>
		<line class="st6" x1="257.02" y1="44.52" x2="257.02" y2="53.07"/>
	</g>
</g>
<g id="Character_3">
	<g>
		<path class="st13" d="M266.08,93.35l-2.09-12.94c0,0-1.05-8.76-1.05-11.64c0-2.88-1.05-3.14-1.44-2.62l-1.18,0.65
			c0,0-0.39-3.4-1.44-2.35c-1.05,1.05-1.18,2.48-1.18,2.48s-1.18,2.09-1.7,4.71c-0.22,1.09-0.39,2.84-0.52,4.54l-0.66-0.88
			c0,0-0.39-4.31-0.52-5.23c-0.13-0.92-1.57,0.13-1.7,3.4c-0.1,2.55,1.39,9.09,2.05,11.83c-0.35,2.94-0.66,6.6-0.22,8.3
			c0.78,3.01,2.35,4.97,2.88,5.75c0.52,0.78,3.66,9.28,3.66,9.28l9.41-4.18L266.08,93.35z"/>
		<path class="st13" d="M262.55,88.12c0,0-2.75-5.1-3.27-6.01c-0.52-0.92-3.66-4.71-4.45-6.8c-0.78-2.09-2.62,0.78-1.83,3.01
			c0.78,2.22,3.92,6.28,3.92,6.28s-1.05,3.53,0.39,6.54c1.44,3.01,4.31,4.31,4.31,4.31"/>
		<path class="st6" d="M260.32,66.81c0,0-0.92,10.2-0.52,14.12"/>
		<path class="st6" d="M257.71,66.94c0,0-0.92,8.11-0.39,11.51"/>
		<path class="st14" d="M335.3,160.41c0,0-16.11-5.61-17.19-5.61c-1.09,0-12.36-0.81-12.36-0.81l-13.34-6.97l-21.5-43.65
			l-12.67,6.15c0,0,4.52,23.35,8.14,36.2c3.62,12.85,7.75,20.25,7.75,20.25l28.77,21.41l1.45,1.99L335.3,160.41z"/>
		<path class="st14" d="M289.69,213.26c0,0-5.97,26.06-5.97,40c0,13.94,0.36,17.56,1.27,18.1c0.9,0.54,11.22,2.35,12.13,2.17
			s3.62-1.09,3.62-1.09s13.21-62.62,14.66-70.4c1.45-7.78,3.44-24.79,3.44-24.79s-15.2,13.03-19.37,17.56
			c-4.16,4.52-3.8,4.71-5.61,8.14C292.05,206.38,289.69,213.26,289.69,213.26z"/>
		<path class="st13" d="M296.59,412.33c0,0-4.85,8.02-5.7,8.86c-0.84,0.84-8.23,5.28-10.34,5.91c-2.11,0.63-4.43,1.9-4.43,4.01
			c0,2.11,6.96,3.17,10.55,3.17c3.59,0,14.14-0.63,15.4-0.63c1.27,0,3.59-0.21,4.64,0c1.06,0.21,6.33,1.06,7.81,0.42
			c1.48-0.63,2.74-5.91,2.32-8.23c-0.42-2.32-1.69-7.6-1.69-7.6L296.59,412.33z"/>
		<path class="st13" d="M361.16,420.34l-3.59,5.91c0,0-4.72,4.25-7.39,5.91c-6.47,4.04,2.75,6.41,6.96,6.12
			c2.96-0.2,8.44-0.21,10.13-1.06c1.69-0.84,8.65-5.49,11.4-7.6c2.74-2.11,2.95-4.43,2.53-7.17c-0.42-2.74-2.32-6.96-2.32-6.96
			s-11.18-3.59-14.35-1.06C361.37,416.97,361.16,420.34,361.16,420.34z"/>
		<path class="st15" d="M299.28,266.33l-4.79,25.15c0,0-8.38,52.46-8.14,54.37c0.24,1.92,10.31,56.1,10.55,58.25
			s-2.16,4.31-2.16,4.31l0.48,5.27c0,0,5.99,4.07,10.06,5.03c4.07,0.96,10.3,1.2,10.3,1.2s2.16-4.55,2.16-5.27
			c0-0.72-1.44-5.51-1.44-6.23c0-0.72-3.84-64-3.84-64l9.34-36.17c0,0,12.7,38.32,13.89,40.96c1.2,2.63,24.3,61.18,24.3,61.18
			s-2.16,2.87-1.44,5.03c0.72,2.16,1.68,6.23,1.68,6.23s5.27-5.99,7.9-4.07c2.63,1.92,3.11,4.07,3.11,4.07l8.38-3.35
			c0,0,0.72-3.35,0.24-5.03c-0.48-1.68-1.68,0.48-1.68-5.75c0-6.23-8.25-43.46-9.93-49.2c-1.68-5.75-8.62-16.53-8.62-16.53
			l-3.11-57.97v-13.41L299.28,266.33z"/>
		<path class="st13" d="M339.57,163.33c0,0-6.18-1.96-8.7-0.84c-2.52,1.12-23.25,23.13-23.53,24.53
			c-0.28,1.4-10.56,70.28-12.24,75.59c-1.68,5.31,7.55,12.03,7.55,12.03l5.59,2.52l4.75-5.59l-0.28,6.71c0,0,14.54,0.28,19.02-0.28
			c4.47-0.56,21.81-5.03,21.81-5.03s3.64-60.41,3.92-61.53c0.28-1.12,3.08-39.43,3.08-39.43l-5.31-3.36L339.57,163.33z"/>
		<path class="st13" d="M339.49,180.06l3.91,7.82c0,0,11.36-12.29,12.66-15.27c1.3-2.98,2.42-3.17,1.68-5.03
			c-0.74-1.86-2.61-3.72-2.61-3.72s-17.32-0.56-19.55,0.56c-2.23,1.12-8.38,15.08-8.75,16.02c-0.37,0.93-0.37,0.93-0.37,0.93
			l11.73-2.05L339.49,180.06z"/>
		<path class="st14" d="M334.22,164.94c0,0-38.37,35.65-40.36,38.01c-1.99,2.35-4.16,10.32-4.16,10.32s3.44-15.2,4.71-17.56
			c1.27-2.35,28.41-30.22,28.41-30.22l7.24-5.07l7.42,1.81L334.22,164.94z"/>
		<g>
			<path class="st13" d="M338.37,116.93c0,0-7.64,8.01-7.45,9.5c0.19,1.49-0.19,3.54-0.19,3.54s-8.01,6.52-8.75,6.7
				c-0.74,0.19-0.74,1.49-0.19,2.61c0.56,1.12,1.49,1.3,1.86,2.23c0.37,0.93,0.19,3.54-1.3,8.75c-1.49,5.21-2.23,5.96-0.74,6.89
				c1.49,0.93,12.29,4.66,12.29,4.66s0.37,15.64,1.12,17.88c0.74,2.23,4.47,0.37,4.47,0.37l15.64-14.9v-2.61l12.29-14.71
				c0,0,3.35-12.1-0.37-17.88c-3.72-5.77-23.28-13.97-23.84-14.15C342.65,115.62,340.05,115.25,338.37,116.93z"/>
			<path class="st15" d="M351.97,112.27c0,0,3.17-1.86,1.12-2.79c-2.05-0.93-4.28-0.19-4.84,0c-0.56,0.19,0.56-5.59-2.61-3.91
				s-7.26,5.77-8.19,8.57c-0.93,2.79,1.86,8.19,4.28,8.57c2.42,0.37,7.82,2.23,7.82,2.23s1.49,1.12,0.56,3.17
				c-0.93,2.05-6.33,6.15-5.59,7.26c0.74,1.12,2.61,3.72,2.61,3.72s-1.86,3.35-1.49,4.28c0.37,0.93,1.49,1.3,1.49,1.3
				s3.35-2.05,6.15-1.3s1.68,5.4,0.56,7.45c-1.12,2.05-2.61,4.47-2.61,4.47s3.17,7.26,3.91,7.26s9.87-9.12,13.78-13.22
				c3.91-4.1,5.59-11.17,4.66-17.13c-0.93-5.96-10.8-13.97-13.97-15.83C356.44,114.5,351.97,112.27,351.97,112.27z"/>
			<path class="st6" d="M325.71,133.13c-1.68-1.12-0.37-6.33,1.12-6.89c1.49-0.56,3.91,3.72,3.91,3.72s8.01,6.15,8.19,7.26
				c0.19,1.12-4.28,4.47-6.7,4.66c-2.42,0.19-3.35,0.19-3.35-3.35c0-3.54,1.3-5.96,1.3-5.96"/>
			<line class="st6" x1="338.93" y1="137.22" x2="348.99" y2="144.11"/>
			<path class="st6" d="M334.09,129.96c0,0,3.72,0.37,5.21,3.72"/>
			<path class="st6" d="M325.34,146.16c0,0,3.35,1.49,7.26,0"/>
			<path class="st6" d="M351.22,155.29c0,0-3.91,0.93-5.77,0"/>
			<polygon class="st15" points="333.9,161.81 340.98,161.43 334.09,167.95 			"/>
		</g>
		<path class="st14" d="M357.74,167.58c0,0-3.75,6.45-7.4,19.32c-3.65,12.88-7.49,51.89-7.49,56.12c0,4.23,9.8,54.96,10.57,56.88
			c0.77,1.92,5.57,2.11,5.57,2.11s14.22-9.61,14.99-12.3c0.77-2.69-9.03-47.85-9.03-47.85s17.87-58.42,16.72-59.19
			C380.51,181.9,357.74,167.58,357.74,167.58z"/>
		<path class="st6" d="M364.37,174.03c0,0-11.91,47.66-14.8,55.92c-2.88,8.26-6.73,13.07-6.73,13.07"/>
		<g>
			<g>
				<path class="st13" d="M360.39,293.78c0,0-1.8,2.77-2.77,3.87c-0.97,1.11-3.6,2.35-2.35,3.18c1.24,0.83,4.56-0.69,5.39-1.94
					L360.39,293.78z"/>
				<g>
					<path class="st13" d="M367.93,283.05c0,0-7.26,7-7.67,7.69c-0.41,0.69-0.83,6.5-0.83,8.16c0,1.66,1.11,2.63,1.66,2.77
						c0.55,0.14,1.66,0.14,1.66,0.14l1.8-0.28c0,0,1.66-0.14,3.32,0.28c1.66,0.41,4.98,0.41,5.81-0.41c0.83-0.83,1.66-2.9,1.66-2.9
						s0.97-1.11,1.24-2.77c0.28-1.66,1.94-9.96,1.94-9.96S366.75,281.72,367.93,283.05z"/>
					<line class="st6" x1="362.74" y1="301.8" x2="363.99" y2="294.06"/>
					<line class="st6" x1="366.34" y1="301.39" x2="367.72" y2="294.75"/>
					<line class="st6" x1="370.49" y1="301.66" x2="371.73" y2="295.44"/>
				</g>
			</g>
			<path class="st14" d="M381.66,182.67c0,0,19.59,43.33,22.28,50.06c2.69,6.73,0.58,9.16,0,10.89
				c-0.58,1.73-22.76,43.65-22.76,43.65l-13.26-4.23l13.66-43.95l-10.11-19.15L381.66,182.67z"/>
		</g>
	</g>
</g>
<g id="Character_2">
	<g>
		<g>
			<path class="st13" d="M275.29,107.09c0,0,0.13-5.24,1.08-8.34c0.94-3.09,0.27-4.44-0.4-4.17c-0.67,0.27-1.48,0.4-1.88,2.82
				c-0.4,2.42-0.54,3.63-0.54,5.11C273.54,104,275.29,107.09,275.29,107.09z"/>
			<path class="st13" d="M260.76,91.81c0.24-0.42,1.77,1.23,2.83,2.2c-0.42-0.86-0.53-0.91-1.21-2.39
				c-0.81-1.75-0.66-2.76-0.54-3.23c0.36-1.4,3.23,1.71,4.07,3.33c-0.43-1.3-1.31-4-1.51-4.81c-0.27-1.08-0.13-2.56,0.67-3.09
				c0.81-0.54,2.02,2.29,2.02,2.29s1.75,0.81,2.42,2.15c0.67,1.34,4.57,9.14,4.57,9.14l0.4,6.45l4.17,15.87l9.68,13.45l-10.68,5.19
				l-6.26-14.87c0,0-1.61-1.34-2.82-3.23c-0.88-1.37-1.69-6.45-2.17-10.56c-0.24-0.68-0.59-1.78-0.82-3.14
				c-0.39-2.29-1.1-7.65-1.1-7.65s-2.05-2.45-3.16-4.1C260.66,93.83,260.45,92.36,260.76,91.81z"/>
			<path class="st6" d="M266.15,92.43c0,0,1.84,2.88,2.51,4.51c0.55,1.34,1.03,3.31,1.03,3.31"/>
			<path class="st6" d="M267.09,86.11c0,0,3.5,8.2,4.3,9.41c0.81,1.21,1.21,3.77,1.21,4.44"/>
			<path class="st6" d="M263.59,94.01c0,0,2.61,2.45,2.93,3.16c0.32,0.71,1.34,4.58,1.34,4.58"/>
		</g>
		<g>
			<path class="st13" d="M348.31,367.33c0,0,1.36,18.92-0.51,28.12c-1.87,9.2-8.69,22.83-9.37,24.71
				c-0.68,1.87-6.48,22.83-6.31,23.69c0.17,0.85,4.26,8.18,3.75,11.76c-0.51,3.58-1.36,4.6-2.9,4.94c-1.53,0.34-8.86,0.17-13.8,4.26
				c-4.94,4.09-12.27,3.24-14.83,3.07c-2.56-0.17-9.2-0.17-9.54-1.53c-0.34-1.36,3.58-4.43,5.62-5.28c2.04-0.85,7.5-5.45,9.03-6.99
				c1.53-1.53,7.33-9.03,8.52-11.93c1.19-2.9,4.6-47.2,5.62-54.02c1.02-6.82,1.7-14.48,1.53-18.74c-0.17-4.26,0.85-6.65,0.85-6.65
				L348.31,367.33z"/>
			<path class="st14" d="M300.43,461.06c0.76-0.32,1.98-1.15,3.3-2.14c1.43,0.64,3.43,1.46,4.37,1.46c1.53,0,12.78-7.5,16.7-9.71
				c3.18-1.79,7.69-2.25,9.29-2.35c1.04,2.48,2.06,5.41,1.79,7.3c-0.51,3.58-1.36,4.6-2.9,4.94c-1.53,0.34-8.86,0.17-13.8,4.26
				c-4.94,4.09-12.27,3.24-14.83,3.07c-2.56-0.17-9.2-0.17-9.54-1.53C294.46,464.98,298.38,461.91,300.43,461.06z"/>
		</g>
		<path class="st13" d="M404.09,362.31c0,0,6.01,10.42,8.61,20.63c2.6,10.22,2.2,53.89,2.6,54.69c0.4,0.8,4.01,9.22,5.81,12.82
			c1.8,3.61,6.21,9.01,6.21,10.62c0,1.6-3.21,1.6-3.81,1.6s-11.02,0-11.02,0s-3.01-1-3.61-2.2c-0.6-1.2-1-6.41-2.4-8.01
			c-1.4-1.6-4.81-5.81-5.01-8.01c-0.2-2.2,1.2-9.01,1.2-10.62c0-1.6-4.41-19.43-5.81-24.04c-1.4-4.61-8.41-16.63-9.22-26.64
			s-1.6-14.42-1.6-14.42L404.09,362.31z"/>
		<g>
			<path class="st14" d="M411.03,435.45c2.27,0.66,4.26,3.07,5.38,4.64c1.31,2.98,3.45,7.84,4.71,10.36
				c1.8,3.61,6.21,9.01,6.21,10.62c0,1.6-3.21,1.6-3.81,1.6s-11.02,0-11.02,0s-3-1-3.61-2.2c-0.6-1.2-1-6.41-2.4-8.01
				c-1.4-1.6-4.81-5.81-5.01-8.01c-0.12-1.31,0.33-4.24,0.71-6.74C402.82,437.08,406.17,434.03,411.03,435.45z"/>
			<path class="st15" d="M423.52,462.67c-0.6,0-11.02,0-11.02,0s-3-1-3.61-2.2c-0.6-1.2-1-6.41-2.4-8.01
				c-1.18-1.35-3.78-4.54-4.69-6.84l0.54-0.57c0,0,5.39-4.34,9.34-1.97c3.95,2.37,5,7.89,7.5,10.65c2.5,2.76,6.69,4.81,8.15,7.34
				C427.33,462.67,424.13,462.67,423.52,462.67z"/>
		</g>
		<g>
			<g>
				<path class="st14" d="M407.86,200.99c0,0,6.24,34.16,6.43,35.28s5.24,17.79,4.5,21.54c-0.75,3.75-16.3,35.4-16.3,35.4
					s-3.93-6.56-4.5-6.93c-0.56-0.37,1.5-31.65,1.5-31.65l-6.18-20.04c0,0-0.04-20.43,2.63-24.34
					C398.61,206.33,406.8,199.03,407.86,200.99z"/>
				<path class="st6" d="M395.3,238.85c0,0,8.86-2.27,13.8-7.21"/>
				<path class="st6" d="M399.42,245.85c0,0,6.8,4.33,13.8,4.33"/>
			</g>
			<path class="st13" d="M409.75,278.19c-3.76,7.89-7.26,15.02-7.26,15.02s-3.93-6.56-4.5-6.93c-0.21-0.14-0.06-4.4,0.21-9.75
				C402.73,279.64,406.84,279.26,409.75,278.19z"/>
		</g>
		<path class="st15" d="M391.85,259.5c0,0,8.74,22.52,12.14,31.33c3.41,8.81,3.91,55.85,3.91,55.85l-1,17.63
			c0,0-19.63,9.22-42.07,8.21c-22.44-1-41.67-7.41-41.67-7.41s0.1-40.82,5.11-54.44s8.61-27.45,8.61-27.45l1.68-21.11L391.85,259.5z
			"/>
		<g>
			<path class="st14" d="M402.88,212.02c-0.36,0.89-9.01,29.12-9.01,29.12s-2.06,6.74-2.25,7.49c-0.19,0.75,0.37,9.55,0.56,10.3
				c0.19,0.75,1.56-1.25,1,1.38c-0.56,2.62-3,2.81-4.5,3.56c-1.5,0.75-12.92,4.87-24.91,4.68c-11.99-0.19-25.47-2.62-25.47-2.62
				s-2.06-3.75-2.43-5.43c-0.37-1.69,0.68-5.5,0.68-5.5l-5.03-40.31c0,0-20.85-27.56-23.7-29.52c-2.85-1.96-6.58-4.8-7.65-5.69
				c-1.07-0.89-2.14-2.67-2.85-4.63c-0.71-1.96-19.68-36.49-19.68-36.49s4.8-5.16,6.05-5.52c1.25-0.36,4.09-0.71,4.09-0.71
				l24.66,27.59c0,0,4.8,2.31,5.87,2.85c1.07,0.53,0.89,3.56,0.89,3.56l7.5,3.36l25.17,7.95l12.02,2.9c0,0,33.99,12.81,36.12,13.88
				c2.14,1.07,8.01,4.98,7.83,6.76c-0.18,1.78-3.38,9.07-3.38,9.07"/>
			<path class="st6" d="M351.27,237.05c5.48,7.33,12.8,16.18,19,20.39"/>
			<path class="st6" d="M343.12,225.41c0,0,2.59,4.02,6.44,9.32"/>
			<path class="st6" d="M377.16,255.87c0.97,0.67,1.94,1.28,2.86,1.76"/>
			<path class="st6" d="M364.28,244.33c0,0,5.33,5.78,10.87,10.06"/>
			<path class="st6" d="M314.77,167.03c0,0-8.19,9.43-8.01,6.58c0.18-2.85-0.71-2.85,1.96-4.98"/>
		</g>
		<g>
			<path class="st13" d="M363.16,130.27c0,0-9.99,5.95-10.84,7.86c-0.85,1.91-1.28,6.59-2.34,7.65c-1.06,1.06-7.22,2.55-7.01,4.04
				c0.21,1.49,2.55,5.95,2.55,5.95s-0.43,14.24-0.43,15.3s1.28,1.7,2.55,1.91c1.27,0.21,4.25,1.06,4.25,1.06v3.4
				c0,0,8.29,2.76,9.14,2.76s6.37,0.43,6.37,0.43s11.26-7.44,14.87-18.06c3.61-10.62,0-18.91-4.04-23.8
				C374.21,133.89,363.16,130.27,363.16,130.27z"/>
			<path class="st15" d="M364.86,158.96c0,0,7.01-5.74,8.71-1.06c1.7,4.67,0.21,7.22-1.91,8.07c-2.12,0.85-7.22,2.55-7.22,2.55
				s-4.89,11.26-5.31,15.94c-0.43,4.67-3.4,8.29-1.91,11.47c1.49,3.19,3.61,4.46,14.02,5.52c10.41,1.06,22.27-0.47,29.71-3.66
				c7.44-3.19,6.41-14.41,4.93-16.96c-1.49-2.55-8.5-11.47-8.29-16.15c0.21-4.67,6.59-11.87,2.06-24.82
				c-4-11.44-23.52-18.53-28.84-17.89s-9.99,0-9.99,3.4c0,3.4,0.21,6.8,3.82,11.47c3.61,4.67,1.49,8.29,0.64,9.14
				s-3.61,3.61-3.19,7.01C362.52,156.41,364.86,158.96,364.86,158.96z"/>
			<path class="st6" d="M352.58,160.22c0,0-0.74,3.19-5.65,2.21"/>
			<path class="st6" d="M355.77,143.28c0,0-0.49-2.33-2.95-2.33"/>
			<path class="st7" d="M351.55,146.02c-0.48,0.97-0.58,1.9-0.22,2.09c0.36,0.18,1.05-0.46,1.54-1.43c0.48-0.97,0.58-1.9,0.22-2.09
				C352.72,144.41,352.04,145.05,351.55,146.02z"/>
		</g>
	</g>
</g>
<g id="Character_1">
	<g>
		<g>
			<path class="st13" d="M148.61,136.12c0,0,0.55-1.1-1.1-2.76c-1.66-1.66-9.01-6.25-11.22-7.72c-2.21-1.47-4.78-6.07-13.61-0.74
				c-8.83,5.33-14.71,14.9-15.82,21.7c-1.1,6.8,3.31,15.08,11.59,19.68s14.71,5.33,14.71,5.33l0.92,1.66l26.11-3.86
				c0,0,4.23-4.41,3.68-6.99s-5.15-11.22-5.15-11.22s2.94-4.41,2.02-5.7C159.83,144.21,148.61,136.12,148.61,136.12z"/>
			<path class="st15" d="M137.76,158.37c0,0-3.68,1.29-5.15,1.84c-1.47,0.55-5.7-0.74-7.54-4.41c-1.84-3.68,0.92-7.54,2.94-7.91
				c2.02-0.37,3.68,0.92,4.78,0.74c1.1-0.18,1.1-1.47,1.29-2.57c0.18-1.1-2.94-3.13-2.94-3.13s4.23-4.6,5.33-6.62
				c1.1-2.02-7.54-4.05-7.91-5.7c-0.37-1.66,7.72-4.97,7.72-4.97c-2.21-1.47-4.78-6.07-13.61-0.74c-8.83,5.33-14.71,14.9-15.82,21.7
				c-1.1,6.8,3.31,15.08,11.59,19.68c5.42,3.01,10.04,4.36,12.59,4.94l1.94-1.08c0,0,0.92-1.1,3.13-4.41
				C138.31,162.41,137.76,158.37,137.76,158.37z"/>
			<path class="st6" d="M147.32,135.38c0,0-2.39-0.37-4.23,2.94"/>
			<path class="st6" d="M158.73,154.87c0,0-3.49,1.47-8.09-2.57"/>
			<path class="st7" d="M148.31,140.77c0.64,1.27,0.72,2.52,0.17,2.8c-0.54,0.27-1.5-0.53-2.14-1.8c-0.64-1.27-0.72-2.52-0.17-2.8
				C146.71,138.69,147.67,139.5,148.31,140.77z"/>
		</g>
		<path class="st14" d="M156.34,171.06c0,0-21.88-1.84-23.17,0.55c-1.29,2.39-1.1,7.17-1.1,7.17l24.09-5.52L156.34,171.06z"/>
		<g>
			<path class="st13" d="M191.95,160.73c0,0,44.73-48.81,45-49.52c0.27-0.71,1.62-16.48,1.76-17.57c0.13-1.1-0.22-2.8,1.1-4.5
				c1.32-1.69,3.83-5.65,3.83-5.65s1.99-4.2,2.65-5.05c0.66-0.85,2.3-2.13,3.36-3.3c1.07-1.17,2.66-2.09,3.51-1.43
				c0.85,0.66,1.25,3.42,1.25,3.42s1.12,0.02,1.46,1.73c0.35,1.71-2.4,10.64-2.51,11.55c-0.11,0.91-0.94,9.33-1.93,14.4
				c-0.98,5.07-2.52,8.59-4.04,10.44c-1.52,1.85-17.71,25.46-21.78,29.97c-4.07,4.51-20.15,32.52-20.15,32.52L191.95,160.73z"/>
			<path class="st6" d="M242.54,85.5c0,0-2.23,6.24-2.33,7.09s-0.67,5.56-0.67,5.56"/>
			<path class="st6" d="M247.4,77.58c0,0-2.89,8.07-3.21,9.33c-0.33,1.26-0.62,2.96-0.62,2.96"/>
			<path class="st6" d="M254.4,77.13c0,0-0.87,2.85-2.17,5.73c-1.3,2.88-2.47,8.21-2.5,8.46"/>
			<path class="st6" d="M251.46,74.17c0,0-3.39,8.62-3.87,10.47c-0.48,1.85-1.13,5.07-1.36,5.48"/>
		</g>
		<polygon class="st15" points="180.11,191.04 207.33,266.06 201.21,274.62 194.78,262.6 189.72,236.98 		"/>
		<g>
			<path class="st13" d="M121.39,246.37c0,0-2.7,10.8-0.83,12.26c1.87,1.45,18.91,6.65,19.32,6.03c0.42-0.62,0.21-7.48-0.21-9.35
				c-0.42-1.87-3.53-4.36-3.53-4.36L121.39,246.37z"/>
			<path class="st14" d="M126.17,215c0,0-5.4,27.43-4.99,28.47c0.42,1.04,14.34,2.7,14.34,2.7L126.17,215z"/>
			<path class="st14" d="M120.15,238.27c0,0-1.66,8.73,0.42,9.77c2.08,1.04,14.54,4.36,15.58,2.91c1.04-1.45-0.42-7.69-0.42-7.69
				S121.19,236.61,120.15,238.27z"/>
		</g>
		<g>
			<g>
				<path class="st13" d="M178.03,443.14c0,0,6.77,5.07,8.7,5.56c1.93,0.48,8.7,2.66,9.42,3.87c0.72,1.21,0,5.07-0.97,6.52
					c-0.97,1.45-14.74,3.62-21.26,2.9c-6.52-0.72-20.78,2.66-22.23-1.93c-1.45-4.59,0.97-11.36,0.97-11.36
					S173.68,444.11,178.03,443.14z"/>
				<path class="st13" d="M191.08,457.88c-2.66,0.72-13.29,1.21-25.85,1.69c-8,0.31-12.07-1.24-13.98-2.41
					c0.03,1,0.17,1.99,0.45,2.9c1.45,4.59,15.71,1.21,22.23,1.93c6.52,0.72,20.3-1.45,21.26-2.9c0.38-0.58,0.73-1.54,0.96-2.56
					C194.43,456.98,192.4,457.52,191.08,457.88z"/>
			</g>
			<g>
				<path class="st13" d="M89.36,428.64c0,0-5.8,12.08-4.83,14.74c0.97,2.66,3.87,3.14,6.52,4.11s9.42,0.72,11.36,1.93
					c1.93,1.21,11.11,5.32,15.46,6.04c4.35,0.72,8.94-1.21,9.42-3.14c0.48-1.93-7.01-7.73-9.91-9.66c-2.9-1.93-7.49-8.7-7.49-8.7
					L89.36,428.64z"/>
				<path class="st13" d="M99.02,446.28c-5.38-1.29-12.85-4.49-14.42-5.18c-0.2,0.99-0.25,1.79-0.07,2.28
					c0.97,2.66,3.87,3.14,6.52,4.11c2.66,0.97,9.42,0.72,11.36,1.93c1.93,1.21,11.11,5.32,15.46,6.04c4.35,0.72,8.94-1.21,9.42-3.14
					c0.1-0.38-0.13-0.93-0.57-1.56c-2.02,1.22-4.77,2.63-6.92,2.76C115.93,453.77,105.06,447.73,99.02,446.28z"/>
			</g>
			<path class="st15" d="M137.21,275.51c0,0-5.33,20.5-5.57,26.3c-0.24,5.8,0.24,11.6,0.24,11.6s-3.87,2.9-3.14,5.32
				c0.72,2.42,1.93,4.11,1.93,4.11s-9.18,35.03-10.39,36.73c-1.21,1.69-14.01,21.5-17.4,28.27c-3.38,6.77-11.36,35.01-11.36,35.01
				s-1.69,1.69-1.93,3.38c-0.24,1.69-0.72,4.59-0.72,4.59s2.66,5.32,9.91,6.28c7.25,0.97,11.11-0.48,11.11-0.48s1.21-1.69,1.69-4.11
				c0.48-2.42,1.21-6.28,1.21-6.28l13.53-23.44l22.47-41.29l6.77-19.33c0,0,3.14,28.51,2.9,29.72c-0.24,1.21-6.52,22.93-6.52,33.56
				c0,10.63,0.72,32.86,0.72,32.86s-1.93,3.38-1.45,5.32c0.48,1.93,0.48,1.93,0.48,1.93l0.97,3.14c0,0,9.42-0.24,13.77-0.97
				c4.35-0.72,11.6-4.59,11.6-4.59s0.72-3.38,0-4.59c-0.72-1.21-1.69-2.42-1.93-3.62c-0.24-1.21-0.97-4.11-0.24-7.49
				c0.72-3.38,8.21-54.1,11.11-66.9c2.9-12.81,3.62-54.12,3.38-61.61c-0.24-7.49-1.21-12.81-1.21-12.81l0.48-8.7
				c0,0-13.53-5.8-25.13-6.52c-11.6-0.72-25.61,1.45-25.61,1.45L137.21,275.51z"/>
			<polyline class="st16" points="141.79,314.62 150.73,329.12 154.59,340.48 			"/>
			<path class="st16" d="M158.35,314.24c1.69-1.5,3.36-3.11,3.97-3.72c1.21-1.21,2.9-17.88,3.14-18.6"/>
			<path class="st16" d="M140.58,294.08c0,0,0,12.56,1.45,15.22c1.45,2.66,10.87,8.46,12.32,7.97"/>
			<path class="st6" d="M143.24,288.53c0,0,13.05-2.17,21.5,0.72"/>
			<path class="st16" d="M175.52,352.72c0.32,7.09,0.61,17.07-0.15,19.65c-1.21,4.11-1.93,4.83-2.66,6.77
				c-0.72,1.93,0.24,4.11-0.24,5.32c-0.48,1.21-1.93,22.45-3.14,28c-1.21,5.56-1.45,17.64-1.45,17.64"/>
			<path class="st16" d="M179.72,281.04c0,0-1.69,21.26-2.42,28.03c-0.72,6.77-3.14,17.15-2.9,21.5c0.24,4.35,0.72,14.74,0.72,14.74
				s0.06,0.93,0.14,2.46"/>
			<path class="st6" d="M168.37,433.23v5.56c0,0,1.93,0.48,1.45,2.42c-0.48,1.93-2.17,3.38-2.17,3.38"/>
		</g>
		<path class="st14" d="M132.06,178.78c0,0-7.91,8.64-9.93,18.57c-2.02,9.93,4.78,23.36,4.78,23.36l11.4,42.11
			c0,0-3.31,2.57-3.49,4.78s0.74,7.36,2.39,7.91c1.66,0.55,27.4,0.37,27.4,0.37s25.56,4.6,26.11,4.6s3.49-2.57,3.49-5.52
			c0-2.94-0.55-7.17-0.74-9.01c-0.18-1.84-7.54-50.2-8.28-53.51s-1-16.39-1-16.39l15.4-11.43l2.63-3.39l-11.78-19.02
			c0,0-18.87,4.61-19.79,5.35C169.76,168.3,132.06,178.78,132.06,178.78z"/>
		<path class="st14" d="M186.12,164.47c0,0,12.45,22.62,13.2,22.53c0.75-0.09,7.67-5.19,8.16-6.24c0.5-1.05-0.33-3.37-0.33-3.37
			s-12.95-16.94-14.12-18.01c-1.17-1.07-2.51-0.67-2.97,0.01C189.62,160.07,185.29,160.66,186.12,164.47z"/>
		<line class="st6" x1="184.21" y1="196.05" x2="159.99" y2="214.13"/>
		<path class="st6" d="M155.87,241.3c-1.25,2.17-2.54,4.18-3.87,5.92"/>
		<path class="st6" d="M168.33,212.04c0,0-2.95,11.2-10.83,26.29"/>
		<path class="st6" d="M159.55,242.19c0,0-8.95,13.42-13.14,17.05"/>
	</g>
</g>
</svg>
