<?xml version="1.0" encoding="utf-8"?>
<!-- Generator: Adobe Illustrator 26.2.1, SVG Export Plug-In . SVG Version: 6.00 Build 0)  -->
<svg version="1.1" x="0px" y="0px"
	 viewBox="0 0 1713 1140" style="enable-background:new 0 0 1713 1140;" xml:space="preserve">
<style type="text/css">
	.st0{fill:#EED5D5;}
	.st1{fill:#F7F7F7;}
	.st2{fill:#8CABEF;}
	.st3{fill:#D67086;}
	.st4{fill:#5D66D3;}
	.st5{fill:#DDDAE8;}
	.st6{fill:#3B3387;}
	.st7{fill:#FFFFFF;}
	.st8{opacity:0.07;fill:#2E4661;}
	.st9{opacity:0.03;fill:#272525;}
	.st10{fill:#353A85;}
	.st11{opacity:0.2;fill:#BBBCBF;}
	.st12{opacity:0.5;fill:#D1E7F5;}
	.st13{opacity:0.22;}
	.st14{opacity:0.31;fill:#FFFFFF;}
	.st15{fill:#EAC5B0;}
	.st16{fill:#292949;}
</style>
<g id="Guides_For_Artboard">
</g>
<g id="background">
	<circle class="st0" cx="855.5" cy="570" r="532.55"/>
</g>
<g id="object">
	<g>
		<g>
			<path class="st1" d="M1091.39,1033.05H592.12V314.67h554.12v671.59C1146.24,1012.1,1121.68,1033.05,1091.39,1033.05z"/>
			<rect x="591.99" y="314.67" class="st2" width="553.2" height="33.35"/>
		</g>
		<g>
			<g>
				<path class="st3" d="M1006.51,709.75c7.46,0,7.46-8.44,0-8.44c-92.56,0-185.12,0-277.67,0c-7.46,0-7.46,8.44,0,8.44l0,0H1006.51
					z"/>
			</g>
		</g>
		<g>
			<path class="st0" d="M856.53,371.15c-44.49,0-84.31,19.7-111.31,50.84l111.31,96.45l111.31-96.45
				C940.85,390.86,901.02,371.15,856.53,371.15z"/>
			<path class="st4" d="M1012.92,496.86l-145.78,20.96v147.29c81.41,0,147.29-65.88,147.29-147.29
				C1014.43,510.7,1013.9,503.71,1012.92,496.86z"/>
			<path class="st5" d="M745.38,422.48c-52.47,62.25-44.56,155.07,17.69,207.54c5.44,4.59,11.13,8.69,17,12.36L858,517.41
				L745.38,422.48z"/>
			<path class="st2" d="M857.79,664.9c-27.6,0.01-55.29-7.7-79.62-23.39l79.64-123.89L857.79,664.9z"/>
			<path class="st6" d="M1020.41,488.75c-4.08-28.66-16.39-54.64-34.47-75.49l-111.31,96.45L1020.41,488.75z"/>
		</g>
		<g>
			<g>
				<rect x="657.27" y="870.45" class="st3" width="54.11" height="130.33"/>
				<rect x="657.27" y="819.98" class="st0" width="54.11" height="61.24"/>
			</g>
			<g>
				<rect x="1013.47" y="876.33" class="st3" width="54.11" height="130.33"/>
				<rect x="1013.47" y="766.33" class="st0" width="54.46" height="120.77"/>
			</g>
			<g>
				<rect x="894.74" y="866.04" class="st3" width="54.11" height="137.68"/>
				<rect x="894.74" y="853.79" class="st0" width="54.11" height="91.38"/>
			</g>
			<g>
				<rect x="776" y="818.08" class="st3" width="54.11" height="184.89"/>
				<rect x="776" y="746.49" class="st0" width="54.11" height="147.89"/>
			</g>
		</g>
		<g>
			<g>
				<path class="st7" d="M613.13,340.78c-3.92,0-7.12-3.19-7.12-7.12s3.19-7.12,7.12-7.12c3.92,0,7.12,3.19,7.12,7.12
					S617.05,340.78,613.13,340.78z M613.13,327.73c-3.27,0-5.93,2.66-5.93,5.93c0,3.27,2.66,5.93,5.93,5.93
					c3.27,0,5.93-2.66,5.93-5.93C619.06,330.39,616.4,327.73,613.13,327.73z"/>
			</g>
			<g>
				<path class="st7" d="M635.07,340.78c-3.92,0-7.12-3.19-7.12-7.12s3.19-7.12,7.12-7.12s7.12,3.19,7.12,7.12
					S638.99,340.78,635.07,340.78z M635.07,327.73c-3.27,0-5.93,2.66-5.93,5.93c0,3.27,2.66,5.93,5.93,5.93s5.93-2.66,5.93-5.93
					C640.99,330.39,638.33,327.73,635.07,327.73z"/>
			</g>
			<g>
				<path class="st7" d="M657,340.78c-3.92,0-7.12-3.19-7.12-7.12s3.19-7.12,7.12-7.12s7.12,3.19,7.12,7.12
					S660.93,340.78,657,340.78z M657,327.73c-3.27,0-5.93,2.66-5.93,5.93c0,3.27,2.66,5.93,5.93,5.93c3.27,0,5.93-2.66,5.93-5.93
					C662.93,330.39,660.27,327.73,657,327.73z"/>
			</g>
		</g>
	</g>
	<path class="st8" d="M607.04,1053.97H253.83v-545.5h386.01v512.7C639.84,1039.28,625.15,1053.97,607.04,1053.97z"/>
	<g>
		<g>
			<path class="st5" d="M578.11,1038.71H209.97V467.2H625.9v523.72C625.9,1017.31,604.5,1038.71,578.11,1038.71z"/>
		</g>
		<rect x="254.12" y="512.83" class="st7" width="336.7" height="212.92"/>
		<path class="st1" d="M467.41,586.67c1.4,2.82,3.81,5.22,8.39,6.93c8.53,3.18,19.99,0.89,24.9-6.25
			c8.22-11.93,5.91-29.01,14.75-41.41c3.59-5.03,9.06-9.11,15.51-10.95c6.45-1.84,13.85-1.3,19.59,1.86
			c9.35,5.15,12.58,15.79,12.67,25.45c0.17,18.55-2.42,37.72-5.76,56.02c-1.62,8.86-4.11,17.96-10.52,24.95
			c-8.71,9.49-23.04,13.44-36.75,15.56c-34.69,5.35-70.26,2.08-105.28-1.2c-28.17-2.64-56.34-5.28-84.51-7.92
			c-7.94-0.74-31.32,0.46-36.07-5.05c-4.64-5.37-0.99-23.58,1.72-29.2c6.05-12.51,22.58-19.58,38.1-18.78
			c35.01,1.79,21.17-34.77,32.38-52.13c5.95-9.22,19.06-15.85,30.35-12.01c10.77,3.67,15.26,14.47,20.57,23.44
			c2.76,4.66,6.67,9.48,12.56,10.49c10.01,1.71,18.37-8.46,28.56-8.07c6.04,0.23,11.17,4.3,13.78,9.07
			C465.89,573.95,464.65,581.11,467.41,586.67z"/>
		<path class="st3" d="M568.81,714.19c-0.01,0,0.06-15.32,0.06-16.17c0.08-22.87,0.08-45.74,0.11-68.61
			c0.03-21.85,1.83-43.69,1.47-65.49c-0.16-10.08-4.51-15.35-15.13-12.65c-10.45,2.66-20.02,8.87-26.6,17.43
			c-4.46,5.8-8.16,13.06-15.09,15.4c-12.39,4.17-22.52-9.78-33.65-16.64c-11.98-7.39-28.65-6.15-39.4,2.94
			c-12.99,10.98-15.97,29.97-26.96,42.96c-12.1,14.29-34.08,19.13-51.06,11.24c-6.98-3.24-12.97-8.29-19.85-11.74
			c-27.27-13.67-65.18,6-69.7,36.16v62.42C273.02,711.44,569.36,714.74,568.81,714.19z"/>
		<rect x="259.62" y="758.21" class="st2" width="25.31" height="25.31"/>
		<rect x="259.62" y="795.62" class="st4" width="25.31" height="25.31"/>
		<rect x="305.83" y="765.91" class="st1" width="73.72" height="7.7"/>
		<rect x="304.73" y="806.62" class="st1" width="73.72" height="7.7"/>
		<rect x="262.92" y="864.08" class="st1" width="321.3" height="8.32"/>
		<rect x="262.92" y="888.25" class="st0" width="143.04" height="114.02"/>
		<rect x="427.97" y="889.35" class="st1" width="156.25" height="49.65"/>
		<rect x="426.32" y="952.07" class="st1" width="156.25" height="49.65"/>
	</g>
	<g>
		<path class="st2" d="M445.78,231.01H182.9c-1.01,0-1.83,0.89-1.83,2v139.26c0,34.33,25.54,62.17,57.05,62.17h109l44.57,62.53
			c1.19,1.67,3.83,0.85,3.86-1.2l0.92-61.32h49.32c1.01,0,1.83-0.89,1.83-2V233.01C447.61,231.91,446.79,231.01,445.78,231.01z"/>
		<g>
			<rect x="215.49" y="264.29" class="st5" width="163.75" height="6.82"/>
			<rect x="215.49" y="316.32" class="st5" width="195.3" height="6.82"/>
			<rect x="215.49" y="368.34" class="st5" width="195.3" height="6.82"/>
		</g>
	</g>
	<g>
		<g>
			<path class="st3" d="M616.81,296.31H421.83V158.1h182.58l39.1,41.3v68.37C643.52,283.53,631.56,296.31,616.81,296.31z"/>
			<polygon class="st1" points="643.66,199.72 604.4,200.71 604.4,158.1 			"/>
		</g>
		<g>
			<rect x="475.3" y="193.97" class="st1" width="124.39" height="5.92"/>
			<rect x="455.6" y="222.59" class="st1" width="144.09" height="5.92"/>
			<rect x="455.6" y="251.22" class="st1" width="144.09" height="5.92"/>
		</g>
	</g>
	<g>
		<g>
			<path class="st4" d="M1009.54,572.95c-0.74,0-1.38-0.54-1.48-1.3c-0.28-2.03-0.46-4.08-0.54-6.12c-0.03-0.83,0.61-1.53,1.44-1.56
				c0.83-0.03,1.53,0.61,1.56,1.44c0.08,1.94,0.25,3.9,0.52,5.83c0.11,0.82-0.46,1.58-1.28,1.69
				C1009.68,572.95,1009.61,572.95,1009.54,572.95z"/>
		</g>
		<g>
			<path class="st4" d="M1009.69,555.05c-0.08,0-0.15-0.01-0.23-0.02c-0.82-0.12-1.38-0.89-1.26-1.71c0.6-3.94,1.57-7.93,2.89-11.85
				c0.26-0.79,1.11-1.21,1.9-0.94c0.79,0.26,1.21,1.12,0.94,1.9c-1.27,3.76-2.2,7.58-2.77,11.34
				C1011.06,554.52,1010.42,555.05,1009.69,555.05z M1017.19,532.46c-0.23,0-0.47-0.05-0.69-0.17c-0.74-0.38-1.03-1.28-0.65-2.02
				c1.8-3.5,3.91-6.99,6.27-10.4c0.47-0.68,1.41-0.85,2.09-0.38c0.68,0.47,0.85,1.41,0.38,2.09c-2.28,3.3-4.32,6.68-6.07,10.07
				C1018.26,532.17,1017.73,532.46,1017.19,532.46z M1030.71,512.81c-0.35,0-0.7-0.12-0.99-0.37c-0.62-0.54-0.69-1.49-0.14-2.12
				c2.59-2.97,5.42-5.91,8.4-8.71c0.6-0.57,1.55-0.54,2.12,0.06c0.57,0.6,0.54,1.55-0.06,2.12c-2.91,2.74-5.67,5.6-8.2,8.5
				C1031.55,512.63,1031.13,512.81,1030.71,512.81z M1048.08,496.41c-0.44,0-0.88-0.2-1.18-0.57c-0.51-0.65-0.4-1.59,0.25-2.11
				c3.14-2.47,6.45-4.84,9.82-7.05c0.69-0.45,1.62-0.26,2.08,0.43c0.45,0.69,0.26,1.62-0.43,2.08c-3.3,2.16-6.53,4.48-9.61,6.9
				C1048.73,496.3,1048.4,496.41,1048.08,496.41z M1068.06,483.3c-0.53,0-1.04-0.28-1.32-0.78c-0.4-0.73-0.13-1.64,0.59-2.04
				c3.49-1.92,7.1-3.76,10.73-5.48c0.75-0.35,1.64-0.04,2,0.71c0.35,0.75,0.04,1.64-0.71,2c-3.58,1.7-7.14,3.51-10.57,5.4
				C1068.55,483.24,1068.3,483.3,1068.06,483.3z M1089.65,473.04c-0.59,0-1.15-0.35-1.39-0.94c-0.31-0.77,0.06-1.64,0.83-1.95
				c3.67-1.49,7.46-2.91,11.27-4.22c0.78-0.27,1.64,0.15,1.91,0.93c0.27,0.78-0.15,1.64-0.93,1.91c-3.76,1.29-7.5,2.69-11.12,4.16
				C1090.03,473.01,1089.84,473.04,1089.65,473.04z M1112.25,465.26c-0.65,0-1.25-0.43-1.44-1.09c-0.23-0.8,0.23-1.63,1.03-1.86
				c3.79-1.09,7.71-2.11,11.64-3.04c0.81-0.19,1.61,0.31,1.8,1.12c0.19,0.81-0.31,1.61-1.12,1.8c-3.88,0.92-7.75,1.93-11.5,3
				C1112.53,465.24,1112.39,465.26,1112.25,465.26z M1303.5,461.01l-1.22,0c-0.83-0.01-1.5-0.68-1.49-1.51
				c0.01-0.83,0.65-1.51,1.51-1.49l1.2,0c3.71,0,7.28-0.13,10.63-0.39c0.82-0.06,1.55,0.55,1.61,1.38c0.06,0.83-0.55,1.55-1.38,1.61
				C1310.94,460.87,1307.29,461.01,1303.5,461.01z M1290.35,460.55c-0.03,0-0.07,0-0.1,0c-3.57-0.23-7.48-0.56-11.97-1
				c-0.82-0.08-1.43-0.82-1.35-1.64c0.08-0.82,0.82-1.43,1.64-1.35c4.45,0.44,8.33,0.76,11.87,1c0.83,0.05,1.45,0.77,1.4,1.59
				C1291.79,459.94,1291.13,460.55,1290.35,460.55z M1135.51,459.75c-0.71,0-1.34-0.5-1.47-1.22c-0.15-0.81,0.38-1.6,1.19-1.75
				c3.86-0.73,7.85-1.4,11.85-1.99c0.82-0.12,1.58,0.45,1.7,1.27c0.12,0.82-0.45,1.58-1.27,1.7c-3.96,0.58-7.9,1.24-11.73,1.97
				C1135.69,459.75,1135.6,459.75,1135.51,459.75z M1326.09,459.05c-0.7,0-1.33-0.5-1.47-1.22c-0.16-0.81,0.37-1.6,1.19-1.76
				c3.95-0.76,7.77-1.78,11.34-3.01c0.78-0.27,1.64,0.14,1.91,0.93c0.27,0.78-0.14,1.64-0.93,1.91c-3.71,1.28-7.66,2.33-11.75,3.12
				C1326.28,459.04,1326.19,459.05,1326.09,459.05z M1266.54,458.29c-0.05,0-0.11,0-0.17-0.01l-3.56-0.39
				c-2.76-0.3-5.54-0.58-8.31-0.85c-0.82-0.08-1.43-0.81-1.35-1.64c0.08-0.82,0.81-1.43,1.64-1.35c2.79,0.27,5.57,0.56,8.35,0.86
				l3.56,0.39c0.82,0.09,1.42,0.83,1.33,1.65C1267.95,457.72,1267.3,458.29,1266.54,458.29z M1159.16,456.27
				c-0.76,0-1.41-0.57-1.49-1.34c-0.09-0.82,0.51-1.56,1.33-1.65c3.9-0.42,7.92-0.79,11.96-1.08c0.83-0.06,1.55,0.56,1.61,1.39
				c0.06,0.83-0.56,1.54-1.39,1.61c-4,0.29-7.99,0.65-11.85,1.07C1159.26,456.26,1159.21,456.27,1159.16,456.27z M1242.74,455.99
				c-0.04,0-0.08,0-0.12,0c-4.02-0.32-8.02-0.6-11.9-0.84c-0.83-0.05-1.46-0.76-1.41-1.59c0.05-0.83,0.76-1.45,1.59-1.41
				c3.9,0.24,7.92,0.52,11.96,0.84c0.83,0.07,1.44,0.79,1.38,1.61C1244.17,455.39,1243.51,455.99,1242.74,455.99z M1218.87,454.55
				c-0.02,0-0.04,0-0.06,0c-4.02-0.16-8.03-0.26-11.92-0.32c-0.83-0.01-1.49-0.69-1.48-1.52c0.01-0.83,0.69-1.52,1.52-1.48
				c3.91,0.06,7.94,0.17,11.99,0.32c0.83,0.03,1.47,0.73,1.44,1.56C1220.33,453.92,1219.67,454.55,1218.87,454.55z M1183,454.52
				c-0.8,0-1.46-0.63-1.5-1.44c-0.03-0.83,0.61-1.53,1.44-1.56c3.92-0.16,7.95-0.26,12-0.31c0.82,0.01,1.51,0.65,1.52,1.48
				c0.01,0.83-0.65,1.51-1.48,1.52c-4.01,0.05-8.02,0.15-11.91,0.31C1183.04,454.52,1183.02,454.52,1183,454.52z M1348.58,451.19
				c-0.53,0-1.05-0.29-1.32-0.79c-0.39-0.73-0.12-1.64,0.61-2.03c3.37-1.82,6.69-3.95,9.85-6.34c0.66-0.5,1.6-0.37,2.1,0.29
				c0.5,0.66,0.37,1.6-0.29,2.1c-3.28,2.49-6.73,4.71-10.23,6.6C1349.07,451.13,1348.82,451.19,1348.58,451.19z M1367.62,436.86
				c-0.38,0-0.77-0.15-1.06-0.44c-0.59-0.59-0.58-1.54,0-2.12c2.69-2.69,5.32-5.65,7.82-8.8c0.51-0.65,1.46-0.76,2.11-0.24
				c0.65,0.51,0.76,1.46,0.24,2.11c-2.57,3.24-5.28,6.29-8.05,9.06C1368.39,436.71,1368,436.86,1367.62,436.86z M1382.5,418.2
				c-0.28,0-0.56-0.08-0.81-0.24c-0.7-0.45-0.9-1.38-0.45-2.07c2.07-3.22,4.08-6.65,5.97-10.21c0.39-0.73,1.3-1.01,2.03-0.62
				c0.73,0.39,1.01,1.3,0.62,2.03c-1.93,3.64-3.98,7.15-6.09,10.43C1383.47,417.95,1382.99,418.2,1382.5,418.2z"/>
		</g>
		<g>
			<path class="st4" d="M1393.77,397.05c-0.2,0-0.41-0.04-0.6-0.13c-0.76-0.33-1.1-1.22-0.77-1.98c0.79-1.78,1.57-3.63,2.31-5.48
				c0.31-0.77,1.18-1.14,1.95-0.83c0.77,0.31,1.14,1.18,0.83,1.95c-0.76,1.89-1.55,3.76-2.35,5.57
				C1394.9,396.72,1394.35,397.05,1393.77,397.05z"/>
		</g>
	</g>
	<g>
		<path class="st2" d="M1467.9,277.48l-6.27,142.27l-46.98-49.32c0,0,53.44-96.94,53.81-95.34l-2.05-1.71
			c1.58-0.45-57.16,93.37-57.16,93.37l-65.93-17.08l121.28-74.63L1467.9,277.48z"/>
	</g>
	<g>
		<rect x="1107.59" y="738.2" class="st8" width="277.22" height="200.41"/>
		<g>
			<g>
				<g>
					<rect x="1117.07" y="726.57" class="st2" width="279.11" height="201.01"/>
					<rect x="1117.07" y="726.57" class="st4" width="278.73" height="16"/>
				</g>
				<path class="st9" d="M1395.59,777.12v-0.62h-34.26v-33.62h-0.62v33.62h-41.07v-33.62h-0.62v33.62h-41.07v-33.62h-0.62v33.62
					h-41.07v-33.62h-0.62v33.62h-41.07v-33.62h-0.62v33.62h-41.07v-33.62h-0.62v33.62h-34.21v0.62h34.21v37.99h-34.21v0.62h34.21
					v37.99h-34.21v0.62h34.21v37.99h-34.21v0.62h34.21v35.35h0.62v-35.35h41.07v35.35h0.62v-35.35h41.07v35.35h0.62v-35.35h41.07
					v35.35h0.62v-35.35h41.07v35.35h0.62v-35.35h41.07v35.35h0.62v-35.35h34.26v-0.62h-34.26v-37.99h34.26v-0.62h-34.26v-37.99
					h34.26v-0.62h-34.26v-37.99H1395.59z M1319.01,777.12v37.99h-41.07v-37.99H1319.01z M1236.25,815.72h41.07v37.99h-41.07V815.72z
					 M1235.63,853.71h-41.07v-37.99h41.07V853.71z M1277.94,815.72h41.07v37.99h-41.07V815.72z M1277.32,777.12v37.99h-41.07v-37.99
					H1277.32z M1235.63,777.12v37.99h-41.07v-37.99H1235.63z M1152.87,777.12h41.07v37.99h-41.07V777.12z M1152.87,815.72h41.07
					v37.99h-41.07V815.72z M1152.87,892.31v-37.99h41.07v37.99H1152.87z M1194.56,892.31v-37.99h41.07v37.99H1194.56z
					 M1236.25,892.31v-37.99h41.07v37.99H1236.25z M1277.94,892.31v-37.99h41.07v37.99H1277.94z M1360.71,892.31h-41.07v-37.99
					h41.07V892.31z M1360.71,853.71h-41.07v-37.99h41.07V853.71z M1360.71,815.1h-41.07v-37.99h41.07V815.1z"/>
			</g>
			<path class="st5" d="M1366.14,768.34c-4.7,0-8.52,3.81-8.52,8.52c0,2.37,0.97,4.52,2.54,6.06c-9.88,8.5-19.75,17.01-29.63,25.51
				c-0.75,0.65-1.5,1.29-2.25,1.94c-1.46-1.18-3.31-1.88-5.33-1.88c-4.7,0-8.52,3.81-8.52,8.52c0,2.99,1.55,5.62,3.88,7.14
				c-2.16,5.21-4.33,10.42-6.49,15.62c-0.92,2.22-1.84,4.44-2.77,6.66c-0.62-0.14-1.26-0.23-1.93-0.23c-3.14,0-5.88,1.71-7.36,4.24
				c-9.54-6.03-19.08-12.06-28.62-18.09c-7.07-4.47-14.14-8.94-21.21-13.4c0.39-0.98,0.61-2.04,0.61-3.16c0-4.7-3.81-8.52-8.52-8.52
				c-4.7,0-8.52,3.81-8.52,8.52c0,0.6,0.06,1.18,0.18,1.74c-13.38,5.46-26.76,10.92-40.14,16.38c-1.31,0.54-2.62,1.07-3.94,1.61
				c-1.31-3.02-4.31-5.13-7.81-5.13c-4.7,0-8.52,3.81-8.52,8.52c0,2.44,1.03,4.64,2.68,6.19c-1.99,2.26-3.97,4.51-5.96,6.77
				c-9.48,10.77-18.97,21.53-28.45,32.3c-1.36-0.92-3-1.46-4.76-1.46c-4.7,0-8.52,3.81-8.52,8.52s3.81,8.52,8.52,8.52
				c4.7,0,8.52-3.81,8.52-8.52c0-1.82-0.57-3.5-1.54-4.88c8.1-9.19,16.2-18.38,24.29-27.58c3.51-3.99,7.03-7.98,10.54-11.97
				c0.99,0.4,2.07,0.63,3.21,0.63c4.7,0,8.52-3.81,8.52-8.52c0-0.11-0.01-0.23-0.02-0.34c0.19-0.08,0.39-0.16,0.58-0.24
				c14.66-5.98,29.32-11.97,43.97-17.95c1.51,2.36,4.15,3.93,7.17,3.93c2.47,0,4.69-1.06,6.24-2.74c6.41,4.05,12.82,8.1,19.23,12.16
				c10.4,6.57,20.8,13.15,31.2,19.72c-0.06,0.42-0.11,0.84-0.11,1.27c0,4.7,3.81,8.52,8.52,8.52c4.7,0,8.52-3.81,8.52-8.52
				c0-2.94-1.49-5.54-3.76-7.07c3.09-7.44,6.18-14.88,9.27-22.32c0.58,0.12,1.18,0.19,1.79,0.19c4.7,0,8.52-3.81,8.52-8.52
				c0-1.57-0.43-3.03-1.17-4.29c1.75-1.5,3.49-3.01,5.24-4.51c7.48-6.44,14.96-12.89,22.45-19.33c1.61-1.39,3.23-2.78,4.84-4.17
				c1.02,0.43,2.14,0.67,3.31,0.67c4.7,0,8.52-3.81,8.52-8.52C1374.66,772.15,1370.84,768.34,1366.14,768.34z"/>
		</g>
	</g>
	<g>
		<g>
			<g>
				<g>
					<g>
						<g>
							<polygon class="st1" points="1419.76,637.9 1386.36,691.4 1196.84,572.01 1230.24,518.51 							"/>
							<path class="st10" d="M1485.05,715.41l-0.39,0.62c-10.54,16.88-29.34,24.15-41.99,16.25l-145.47-89.29l38.23-64.29
								l145.78,91.86C1493.86,678.44,1495.58,698.53,1485.05,715.41z"/>
						</g>
						<polygon class="st11" points="1210.1,579.98 1219.28,586.66 1302.32,565.11 1233.13,520.96 						"/>
					</g>
					<g>
						<path class="st3" d="M1171.52,292.24c-88.94-55.52-206.04-28.44-261.56,60.5c-55.52,88.94-28.44,206.04,60.5,261.56
							c88.94,55.52,206.04,28.44,261.56-60.5C1287.54,464.87,1260.45,347.77,1171.52,292.24z M1209.52,539.76
							c-47.76,76.51-148.51,99.81-225.01,52.05C908,544.04,884.69,443.3,932.46,366.79c47.76-76.51,148.51-99.81,225.01-52.05
							C1233.98,362.51,1257.28,463.25,1209.52,539.76z"/>
						
							<ellipse transform="matrix(0.7071 -0.7071 0.7071 0.7071 -6.8286 890.0631)" class="st12" cx="1070.99" cy="453.27" rx="163.31" ry="163.31"/>
					</g>
				</g>
				<g>
					<g class="st13">
						<path class="st7" d="M953.3,446.7c-0.8-52.07,33.03-99.19,83.27-113.64c50.11-14.42,104.72,7.69,131.09,52.67
							c7.43,12.68,27.64,2.08,20.2-10.61c-30.35-51.78-90.52-78.58-149.19-66.09c-57.82,12.3-100.48,62-107.43,120.08
							c-0.67,5.62-0.84,11.28-0.75,16.94C930.72,460.68,953.53,461.45,953.3,446.7L953.3,446.7z"/>
					</g>
					<path class="st14" d="M1201.75,408.04c7.04,4.39,9.18,13.66,4.79,20.7c-4.39,7.04-13.66,9.18-20.7,4.79
						c-7.04-4.39-9.18-13.66-4.79-20.7C1185.44,405.78,1194.71,403.64,1201.75,408.04z"/>
				</g>
			</g>
			<path class="st3" d="M1299.12,640.85l36.37-61.17c1.25-2.1,0.71-4.81-1.26-6.26l-0.64-0.47c-2.28-1.69-5.53-1.02-6.95,1.43
				l-35.82,61.6c-1.34,2.31-0.53,5.26,1.8,6.56l0.08,0.05C1294.97,643.83,1297.81,643.06,1299.12,640.85z"/>
			<g>
				<path class="st1" d="M1230.29,454.44c-0.14,39.25-14.4,77.3-40.32,106.81c-25.59,29.14-61.21,47.94-99.53,53.38
					c-39.17,5.55-79.61-4.38-112.35-26.33c-31.88-21.38-55.14-54.36-65.34-91.27c-10.58-38.27-6.2-80.02,11.63-115.43
					c17.17-34.11,46.71-61.57,81.93-76.32c36.77-15.4,78.5-16.32,116.09-3.31c36.2,12.53,66.94,38.6,86.21,71.57
					C1222.92,398.03,1230.19,426.13,1230.29,454.44c0.02,5.6,8.71,5.6,8.69,0c-0.14-39.32-13.75-77.19-38.45-107.75
					c-24.11-29.83-58.66-50.7-96.09-58.77c-38.82-8.38-79.87-2.54-115.02,15.77c-33.79,17.61-61.05,47.07-76.47,81.84
					c-16.13,36.34-18.79,77.84-7.94,116.05c10.49,36.92,33.93,69.22,64.96,91.6c31.9,23.01,71.75,33.8,110.89,31.1
					c38.8-2.67,75.7-19.08,104.16-45.49c34.38-31.89,53.8-77.61,53.97-124.37C1239,448.84,1230.31,448.84,1230.29,454.44z"/>
			</g>
		</g>
		<path class="st15" d="M1462.55,751.23c6.14-16.11,15.03-47.96,20.14-63.42c-11.2-37.66-34.24-100.57-36.63-101.27
			c-13.97-4.04-26.42-7.74-40.34-11.76c-0.64-0.19-4.73,20.64-5.37,20.46c-0.52-0.15-0.73-4.31-0.9-9.07c0,0,0,0,0-0.01l-2.68-27.07
			c-0.08-2.26-1.63-4.2-3.82-4.77c-8.16-2.12-25.78-6.25-26.55-4.98c-0.28,0.47-1.8,23.97-3.07,30.69l-2.94-1.53l-3.84-43.86
			c0,0-30.47-7.68-31.07-6.27c-0.7,1.66-7.48,38.87-7.48,38.87s-11.79,88.79-13.13,95.11c-1.96,9.24-8.14,17.53-7.25,26.75
			c0.99,10.29,5.5,19.85,9.95,29.22c10.75,22.63,21.5,45.25,32.25,67.88c2.35,15.36,4.81,50.54,8.34,65.66
			c39.76-8.02,79.7-14.09,123.95-28.18C1473.37,823.27,1459.9,758.18,1462.55,751.23z"/>
		<g>
			<polygon class="st1" points="1337.24,909.66 1328.06,828.95 1487.03,770.09 1514.66,868.49 1337.79,921.29 			"/>
			<path class="st4" d="M1520.77,817.74c0,0-163.5,93.43-197.31,102.28l-9.34,219.98h278L1520.77,817.74z"/>
			<path class="st16" d="M1361.85,861.8c-1.28,4.84-6.24,7.72-11.08,6.44c-4.84-1.28-7.72-6.24-6.44-11.08
				c1.28-4.84,6.24-7.72,11.08-6.44C1360.25,852,1363.13,856.96,1361.85,861.8z"/>
		</g>
		<path class="st15" d="M1288.5,692.04l-21.21-33.44l-30.69-28.58c0,0-5.96-17.23,13.27-17.71c19.23-0.48,32.18,15.6,40.69,28.37
			c3.75,5.61,21.84,21.95,35.89,31.94c18.38,13.07-0.82,70.64-0.82,70.64S1290.63,695.23,1288.5,692.04z"/>
	</g>
</g>
</svg>
