<?xml version="1.0" encoding="utf-8"?>
<svg version="1.1" x="0px" y="0px"
	 viewBox="0 0 750 500" style="enable-background:new 0 0 750 500;" xml:space="preserve">
<g id="Floor">
	<g>
			<line style="fill:none;stroke:#263238;stroke-linecap:round;stroke-linejoin:round;stroke-miterlimit:10;" x1="633.56" y1="444.51" x2="706.85" y2="444.51"/>
		
			<line style="fill:none;stroke:#263238;stroke-linecap:round;stroke-linejoin:round;stroke-miterlimit:10;" x1="71.56" y1="444.51" x2="115.64" y2="444.51"/>
	</g>
</g>
<g id="Bricks">
	<g>
		<g>
			<g>
				<rect x="188.41" y="222.68" style="opacity:0.2;" width="50.34" height="20.38"/>
			</g>
			<g>
				<rect x="362.39" y="166.68" style="opacity:0.2;" width="50.34" height="20.38"/>
				<rect x="518.39" y="166.68" style="opacity:0.2;" width="50.34" height="20.38"/>
				<rect x="608.39" y="204.68" style="opacity:0.2;" width="50.34" height="20.38"/>
				<rect x="334.82" y="194.84" style="opacity:0.1;" width="50.34" height="20.38"/>
			</g>
			<g>
				<rect x="247.46" y="166.68" style="opacity:0.2;" width="50.34" height="20.38"/>
				<rect x="219.89" y="194.84" style="opacity:0.1;" width="50.34" height="20.38"/>
				<rect x="277.43" y="194.84" style="opacity:0.1;" width="50.34" height="20.38"/>
			</g>
			<g>
				<rect x="129.8" y="241.49" style="opacity:0.2;" width="50.34" height="20.38"/>
				<rect x="104.97" y="194.84" style="opacity:0.1;" width="50.34" height="20.38"/>
				<rect x="162.51" y="194.84" style="opacity:0.1;" width="50.34" height="20.38"/>
			</g>
		</g>
		<g>
			<g>
				<rect x="362.39" y="51.68" style="opacity:0.2;" width="50.34" height="20.38"/>
				<rect x="334.82" y="79.84" style="opacity:0.1;" width="50.34" height="20.38"/>
			</g>
			<g>
				<rect x="615.39" y="51.68" style="opacity:0.2;" width="50.34" height="20.38"/>
				<rect x="587.82" y="79.84" style="opacity:0.1;" width="50.34" height="20.38"/>
			</g>
			<g>
				<rect x="261.46" y="51.68" style="opacity:0.2;" width="50.34" height="20.38"/>
			</g>
			<g>
				<rect x="277.43" y="136.49" style="opacity:0.1;" width="50.34" height="20.38"/>
			</g>
		</g>
		<g>
			<g>
				<rect x="420.8" y="270.68" style="opacity:0.2;" width="50.34" height="20.38"/>
				<rect x="420.8" y="325.68" style="opacity:0.2;" width="50.34" height="20.38"/>
				<rect x="188.41" y="326.68" style="opacity:0.2;" width="50.34" height="20.38"/>
				<rect x="507.27" y="298.84" style="opacity:0.1;" width="50.34" height="20.38"/>
				<rect x="479.8" y="325.49" style="opacity:0.1;" width="50.34" height="20.38"/>
				<rect x="652.83" y="298.84" style="opacity:0.1;" width="50.34" height="20.38"/>
				<rect x="625.35" y="325.49" style="opacity:0.1;" width="50.34" height="20.38"/>
			</g>
			<g>
				<rect x="362.39" y="270.68" style="opacity:0.2;" width="50.34" height="20.38"/>
				<rect x="392.35" y="298.84" style="opacity:0.1;" width="50.34" height="20.38"/>
				<rect x="368.35" y="356.84" style="opacity:0.1;" width="50.34" height="20.38"/>
				<rect x="440.35" y="383.84" style="opacity:0.1;" width="50.34" height="20.38"/>
				<rect x="250.35" y="383.84" style="opacity:0.1;" width="50.34" height="20.38"/>
				<rect x="106.8" y="383.84" style="opacity:0.1;" width="50.34" height="20.38"/>
				<rect x="289.82" y="229.84" style="opacity:0.1;" width="50.34" height="20.38"/>
				<rect x="347.35" y="229.84" style="opacity:0.1;" width="50.34" height="20.38"/>
				<rect x="507.35" y="229.84" style="opacity:0.1;" width="50.34" height="20.38"/>
			</g>
			<g>
				<rect x="247.46" y="270.68" style="opacity:0.2;" width="50.34" height="20.38"/>
				<rect x="302.89" y="328.84" style="opacity:0.1;" width="50.34" height="20.38"/>
			</g>
			<g>
				<rect x="132.54" y="270.68" style="opacity:0.2;" width="50.34" height="20.38"/>
				<rect x="129.8" y="345.49" style="opacity:0.2;" width="50.34" height="20.38"/>
				<rect x="104.97" y="298.84" style="opacity:0.1;" width="50.34" height="20.38"/>
				<rect x="162.51" y="298.84" style="opacity:0.1;" width="50.34" height="20.38"/>
			</g>
		</g>
	</g>
</g>
<g id="Plant">
	<g>
		<g>
			<line style="fill:none;stroke:#263238;stroke-width:2;stroke-miterlimit:10;" x1="667.34" y1="273.77" x2="681.52" y2="409.73"/>
			<g>
				<g>
					
						<line style="fill:none;stroke:#263238;stroke-width:2;stroke-miterlimit:10;" x1="679.24" y1="383.71" x2="672.81" y2="376.92"/>
					<path style="fill:#92E3A9;stroke:#263238;stroke-miterlimit:10;" d="M674.76,378.95c0,0,0.18-3.01-2.56-5.46
						c-1.65-1.47-10.34-5.13-11.17-2.07C660.14,374.76,669.03,381.29,674.76,378.95z"/>
					
						<line style="fill:none;stroke:#263238;stroke-width:0.5;stroke-miterlimit:10;" x1="674.76" y1="378.95" x2="666.49" y2="373.8"/>
				</g>
				<g>
					
						<line style="fill:none;stroke:#263238;stroke-width:2;stroke-miterlimit:10;" x1="680.85" y1="399.17" x2="674.42" y2="392.38"/>
					<path style="fill:#92E3A9;stroke:#263238;stroke-miterlimit:10;" d="M676.37,394.42c0,0,0.18-3.01-2.56-5.46
						c-1.65-1.47-10.34-5.13-11.17-2.07C661.75,390.22,670.64,396.76,676.37,394.42z"/>
					
						<line style="fill:none;stroke:#263238;stroke-width:0.5;stroke-miterlimit:10;" x1="676.37" y1="394.42" x2="668.1" y2="389.26"/>
				</g>
				<g>
					
						<line style="fill:none;stroke:#263238;stroke-width:2;stroke-miterlimit:10;" x1="675.3" y1="345.98" x2="668.87" y2="339.18"/>
					<path style="fill:#92E3A9;stroke:#263238;stroke-miterlimit:10;" d="M670.82,341.22c0,0,0.18-3.01-2.56-5.46
						c-1.65-1.47-10.34-5.13-11.17-2.07C656.2,337.02,665.09,343.56,670.82,341.22z"/>
					
						<line style="fill:none;stroke:#263238;stroke-width:0.5;stroke-miterlimit:10;" x1="670.82" y1="341.22" x2="662.55" y2="336.06"/>
				</g>
				<g>
					
						<line style="fill:none;stroke:#263238;stroke-width:2;stroke-miterlimit:10;" x1="676.91" y1="361.44" x2="670.48" y2="354.65"/>
					<path style="fill:#92E3A9;stroke:#263238;stroke-miterlimit:10;" d="M672.44,356.68c0,0,0.18-3.01-2.56-5.46
						c-1.65-1.47-10.34-5.13-11.17-2.07C657.81,352.49,666.71,359.02,672.44,356.68z"/>
					
						<line style="fill:none;stroke:#263238;stroke-width:0.5;stroke-miterlimit:10;" x1="672.44" y1="356.68" x2="664.16" y2="351.53"/>
				</g>
				<g>
					
						<line style="fill:none;stroke:#263238;stroke-width:2;stroke-miterlimit:10;" x1="672.68" y1="320.86" x2="666.25" y2="314.07"/>
					<path style="fill:#92E3A9;stroke:#263238;stroke-miterlimit:10;" d="M668.2,316.1c0,0,0.18-3.01-2.56-5.46
						c-1.65-1.47-10.34-5.13-11.17-2.07C653.58,311.9,662.47,318.44,668.2,316.1z"/>
					
						<line style="fill:none;stroke:#263238;stroke-width:0.5;stroke-miterlimit:10;" x1="668.2" y1="316.1" x2="659.93" y2="310.95"/>
				</g>
				<g>
					
						<line style="fill:none;stroke:#263238;stroke-width:2;stroke-miterlimit:10;" x1="670.05" y1="295.63" x2="663.61" y2="288.84"/>
					<path style="fill:#92E3A9;stroke:#263238;stroke-miterlimit:10;" d="M665.57,290.87c0,0,0.18-3.01-2.56-5.46
						c-1.65-1.47-10.34-5.13-11.17-2.07C650.94,286.68,659.84,293.21,665.57,290.87z"/>
					
						<line style="fill:none;stroke:#263238;stroke-width:0.5;stroke-miterlimit:10;" x1="665.57" y1="290.87" x2="657.29" y2="285.72"/>
				</g>
				<g>
					
						<line style="fill:none;stroke:#263238;stroke-width:2;stroke-miterlimit:10;" x1="678.16" y1="374.56" x2="683.05" y2="366.59"/>
					<path style="fill:#92E3A9;stroke:#263238;stroke-miterlimit:10;" d="M681.56,368.98c0,0-0.8-2.9,1.38-5.87
						c1.31-1.78,9.06-7.15,10.5-4.33C695,361.86,687.64,370.09,681.56,368.98z"/>
					
						<line style="fill:none;stroke:#263238;stroke-width:0.5;stroke-miterlimit:10;" x1="681.56" y1="368.98" x2="689.01" y2="361.86"/>
				</g>
				<g>
					
						<line style="fill:none;stroke:#263238;stroke-width:2;stroke-miterlimit:10;" x1="673.91" y1="333.87" x2="678.8" y2="325.89"/>
					<path style="fill:#92E3A9;stroke:#263238;stroke-miterlimit:10;" d="M677.31,328.29c0,0-0.8-2.9,1.38-5.87
						c1.31-1.78,9.06-7.16,10.5-4.33C690.75,321.16,683.4,329.4,677.31,328.29z"/>
					
						<line style="fill:none;stroke:#263238;stroke-width:0.5;stroke-miterlimit:10;" x1="677.31" y1="328.29" x2="684.76" y2="321.17"/>
				</g>
				<g>
					
						<line style="fill:none;stroke:#263238;stroke-width:2;stroke-miterlimit:10;" x1="672.04" y1="315.99" x2="676.93" y2="308.01"/>
					<path style="fill:#92E3A9;stroke:#263238;stroke-miterlimit:10;" d="M675.44,310.41c0,0-0.8-2.9,1.38-5.87
						c1.31-1.78,9.06-7.15,10.5-4.33C688.88,303.28,681.53,311.51,675.44,310.41z"/>
					
						<line style="fill:none;stroke:#263238;stroke-width:0.5;stroke-miterlimit:10;" x1="675.44" y1="310.41" x2="682.89" y2="303.29"/>
				</g>
				<g>
					<line style="fill:none;stroke:#263238;stroke-width:2;stroke-miterlimit:10;" x1="669.31" y1="289.77" x2="674.2" y2="281.8"/>
					<path style="fill:#92E3A9;stroke:#263238;stroke-miterlimit:10;" d="M672.71,284.19c0,0-0.8-2.9,1.38-5.87
						c1.31-1.78,9.06-7.15,10.5-4.33C686.15,277.07,678.79,285.3,672.71,284.19z"/>
					
						<line style="fill:none;stroke:#263238;stroke-width:0.5;stroke-miterlimit:10;" x1="672.71" y1="284.19" x2="680.16" y2="277.07"/>
					<path style="fill:#92E3A9;stroke:#263238;stroke-miterlimit:10;" d="M667.22,273.01c0,0-0.8-2.9,1.38-5.87
						c1.31-1.78,9.06-7.15,10.5-4.33C680.66,265.89,673.3,274.12,667.22,273.01z"/>
					
						<line style="fill:none;stroke:#263238;stroke-width:0.5;stroke-miterlimit:10;" x1="667.22" y1="273.01" x2="674.66" y2="265.89"/>
					<path style="fill:#92E3A9;stroke:#263238;stroke-miterlimit:10;" d="M667.65,273.32c0,0-2.97,0.49-5.69-1.99
						c-1.64-1.49-6.17-9.76-3.21-10.89C661.97,259.2,669.39,267.38,667.65,273.32z"/>
					
						<line style="fill:none;stroke:#263238;stroke-width:0.5;stroke-miterlimit:10;" x1="667.65" y1="273.32" x2="661.35" y2="265.16"/>
				</g>
			</g>
		</g>
		<g>
			<line style="fill:none;stroke:#263238;stroke-width:2;stroke-miterlimit:10;" x1="704.76" y1="292.49" x2="690.65" y2="428.46"/>
			<g>
				<g>
					
						<line style="fill:none;stroke:#263238;stroke-width:2;stroke-miterlimit:10;" x1="693.77" y1="402.53" x2="688.87" y2="394.56"/>
					<path style="fill:#92E3A9;stroke:#263238;stroke-miterlimit:10;" d="M690.37,396.95c0,0,0.8-2.9-1.38-5.87
						c-1.31-1.78-9.06-7.15-10.5-4.32C676.92,389.83,684.28,398.06,690.37,396.95z"/>
					
						<line style="fill:none;stroke:#263238;stroke-width:0.5;stroke-miterlimit:10;" x1="690.37" y1="396.95" x2="683.33" y2="390.2"/>
				</g>
				<g>
					
						<line style="fill:none;stroke:#263238;stroke-width:2;stroke-miterlimit:10;" x1="697.69" y1="364.8" x2="692.79" y2="356.82"/>
					<path style="fill:#92E3A9;stroke:#263238;stroke-miterlimit:10;" d="M694.28,359.22c0,0,0.8-2.9-1.38-5.87
						c-1.31-1.78-9.06-7.15-10.5-4.32C680.84,352.1,688.2,360.33,694.28,359.22z"/>
					
						<line style="fill:none;stroke:#263238;stroke-width:0.5;stroke-miterlimit:10;" x1="694.28" y1="359.22" x2="687.25" y2="352.47"/>
				</g>
				<g>
					
						<line style="fill:none;stroke:#263238;stroke-width:2;stroke-miterlimit:10;" x1="696.08" y1="380.26" x2="691.19" y2="372.29"/>
					<path style="fill:#92E3A9;stroke:#263238;stroke-miterlimit:10;" d="M692.68,374.68c0,0,0.8-2.9-1.38-5.87
						c-1.31-1.78-9.06-7.15-10.5-4.32C679.23,367.56,686.59,375.79,692.68,374.68z"/>
					
						<line style="fill:none;stroke:#263238;stroke-width:0.5;stroke-miterlimit:10;" x1="692.68" y1="374.68" x2="685.65" y2="367.93"/>
				</g>
				<g>
					<line style="fill:none;stroke:#263238;stroke-width:2;stroke-miterlimit:10;" x1="700.29" y1="339.68" x2="695.4" y2="331.7"/>
					<path style="fill:#92E3A9;stroke:#263238;stroke-miterlimit:10;" d="M696.89,334.1c0,0,0.8-2.9-1.38-5.87
						c-1.31-1.78-9.06-7.15-10.5-4.32C683.45,326.98,690.8,335.21,696.89,334.1z"/>
					
						<line style="fill:none;stroke:#263238;stroke-width:0.5;stroke-miterlimit:10;" x1="696.89" y1="334.1" x2="689.86" y2="327.35"/>
				</g>
				<g>
					
						<line style="fill:none;stroke:#263238;stroke-width:2;stroke-miterlimit:10;" x1="702.91" y1="314.45" x2="698.02" y2="306.47"/>
					<path style="fill:#92E3A9;stroke:#263238;stroke-miterlimit:10;" d="M699.51,308.87c0,0,0.8-2.9-1.38-5.87
						c-1.31-1.78-9.06-7.15-10.5-4.32C686.06,301.75,693.42,309.98,699.51,308.87z"/>
					
						<line style="fill:none;stroke:#263238;stroke-width:0.5;stroke-miterlimit:10;" x1="699.51" y1="308.87" x2="692.47" y2="302.12"/>
				</g>
				<g>
					
						<line style="fill:none;stroke:#263238;stroke-width:2;stroke-miterlimit:10;" x1="694.6" y1="393.36" x2="701.03" y2="386.56"/>
					<path style="fill:#92E3A9;stroke:#263238;stroke-miterlimit:10;" d="M699.07,388.59c0,0-0.19-3.01,2.56-5.46
						c1.65-1.48,10.34-5.14,11.16-2.08C713.69,384.39,704.8,390.93,699.07,388.59z"/>
					
						<line style="fill:none;stroke:#263238;stroke-width:0.5;stroke-miterlimit:10;" x1="699.07" y1="388.59" x2="707.83" y2="383.16"/>
				</g>
				<g>
					
						<line style="fill:none;stroke:#263238;stroke-width:2;stroke-miterlimit:10;" x1="698.82" y1="352.66" x2="705.25" y2="345.86"/>
					<path style="fill:#92E3A9;stroke:#263238;stroke-miterlimit:10;" d="M703.29,347.9c0,0-0.19-3.01,2.56-5.46
						c1.65-1.48,10.34-5.14,11.16-2.08C717.91,343.69,709.02,350.24,703.29,347.9z"/>
					
						<line style="fill:none;stroke:#263238;stroke-width:0.5;stroke-miterlimit:10;" x1="703.29" y1="347.9" x2="712.05" y2="342.47"/>
				</g>
				<g>
					
						<line style="fill:none;stroke:#263238;stroke-width:2;stroke-miterlimit:10;" x1="700.67" y1="334.78" x2="707.1" y2="327.98"/>
					<path style="fill:#92E3A9;stroke:#263238;stroke-miterlimit:10;" d="M705.15,330.02c0,0-0.19-3.01,2.56-5.46
						c1.65-1.48,10.34-5.14,11.16-2.08C719.77,325.81,710.88,332.35,705.15,330.02z"/>
					
						<line style="fill:none;stroke:#263238;stroke-width:0.5;stroke-miterlimit:10;" x1="705.15" y1="330.02" x2="713.91" y2="324.58"/>
				</g>
				<g>
					
						<line style="fill:none;stroke:#263238;stroke-width:2;stroke-miterlimit:10;" x1="703.4" y1="308.56" x2="709.82" y2="301.76"/>
					<path style="fill:#92E3A9;stroke:#263238;stroke-miterlimit:10;" d="M707.87,303.8c0,0-0.19-3.01,2.56-5.46
						c1.65-1.48,10.34-5.14,11.16-2.08C722.49,299.59,713.6,306.14,707.87,303.8z"/>
					
						<line style="fill:none;stroke:#263238;stroke-width:0.5;stroke-miterlimit:10;" x1="707.87" y1="303.8" x2="716.63" y2="298.37"/>
					<path style="fill:#92E3A9;stroke:#263238;stroke-miterlimit:10;" d="M704.8,291.73c0,0-0.19-3.01,2.56-5.46
						c1.65-1.48,10.34-5.14,11.16-2.08C719.42,287.52,710.53,294.06,704.8,291.73z"/>
					
						<line style="fill:none;stroke:#263238;stroke-width:0.5;stroke-miterlimit:10;" x1="704.8" y1="291.73" x2="713.55" y2="286.29"/>
					<path style="fill:#92E3A9;stroke:#263238;stroke-miterlimit:10;" d="M705.16,292.12c0,0-3.01-0.13-5.16-3.12
						c-1.29-1.8-4.02-10.82-0.89-11.32C702.51,277.14,708.08,286.66,705.16,292.12z"/>
					
						<line style="fill:none;stroke:#263238;stroke-width:0.5;stroke-miterlimit:10;" x1="705.16" y1="292.12" x2="700.67" y2="282.84"/>
				</g>
			</g>
		</g>
		<line style="fill:none;stroke:#263238;stroke-width:2;stroke-miterlimit:10;" x1="688.59" y1="237.12" x2="688.59" y2="409.07"/>
		<g>
			<g>
				
					<line style="fill:none;stroke:#263238;stroke-width:2;stroke-miterlimit:10;" x1="688.73" y1="383.22" x2="683.04" y2="375.79"/>
				<path style="fill:#92E3A9;stroke:#263238;stroke-miterlimit:10;" d="M684.77,378.02c0,0,0.49-2.97-1.98-5.69
					c-1.49-1.64-9.75-6.18-10.89-3.22C670.66,372.33,678.83,379.75,684.77,378.02z"/>
				
					<line style="fill:none;stroke:#263238;stroke-width:0.5;stroke-miterlimit:10;" x1="684.77" y1="378.02" x2="677.08" y2="372.03"/>
			</g>
			<g>
				<line style="fill:none;stroke:#263238;stroke-width:2;stroke-miterlimit:10;" x1="688.73" y1="350.9" x2="683.04" y2="343.48"/>
				<path style="fill:#92E3A9;stroke:#263238;stroke-miterlimit:10;" d="M684.77,345.7c0,0,0.49-2.97-1.98-5.69
					c-1.49-1.64-9.75-6.18-10.89-3.22C670.66,340.01,678.83,347.44,684.77,345.7z"/>
				
					<line style="fill:none;stroke:#263238;stroke-width:0.5;stroke-miterlimit:10;" x1="684.77" y1="345.7" x2="677.08" y2="339.72"/>
			</g>
			<g>
				
					<line style="fill:none;stroke:#263238;stroke-width:2;stroke-miterlimit:10;" x1="688.73" y1="312.96" x2="683.04" y2="305.54"/>
				<path style="fill:#92E3A9;stroke:#263238;stroke-miterlimit:10;" d="M684.77,307.77c0,0,0.49-2.97-1.98-5.69
					c-1.49-1.64-9.75-6.18-10.89-3.22C670.66,302.07,678.83,309.5,684.77,307.77z"/>
				
					<line style="fill:none;stroke:#263238;stroke-width:0.5;stroke-miterlimit:10;" x1="684.77" y1="307.77" x2="677.08" y2="301.78"/>
			</g>
			<g>
				
					<line style="fill:none;stroke:#263238;stroke-width:2;stroke-miterlimit:10;" x1="688.73" y1="287.71" x2="683.04" y2="280.28"/>
				<path style="fill:#92E3A9;stroke:#263238;stroke-miterlimit:10;" d="M684.77,282.51c0,0,0.49-2.97-1.98-5.69
					c-1.49-1.64-9.75-6.18-10.89-3.22C670.66,276.82,678.83,284.24,684.77,282.51z"/>
				
					<line style="fill:none;stroke:#263238;stroke-width:0.5;stroke-miterlimit:10;" x1="684.77" y1="282.51" x2="677.08" y2="276.53"/>
			</g>
			<g>
				
					<line style="fill:none;stroke:#263238;stroke-width:2;stroke-miterlimit:10;" x1="688.73" y1="262.34" x2="683.04" y2="254.92"/>
				<path style="fill:#92E3A9;stroke:#263238;stroke-miterlimit:10;" d="M684.77,257.15c0,0,0.49-2.97-1.98-5.69
					c-1.49-1.64-9.75-6.18-10.89-3.22C670.66,251.45,678.83,258.88,684.77,257.15z"/>
				
					<line style="fill:none;stroke:#263238;stroke-width:0.5;stroke-miterlimit:10;" x1="684.77" y1="257.15" x2="677.08" y2="251.16"/>
			</g>
			<g>
				<line style="fill:none;stroke:#263238;stroke-width:2;stroke-miterlimit:10;" x1="688.6" y1="393.08" x2="694.3" y2="385.66"/>
				<path style="fill:#92E3A9;stroke:#263238;stroke-miterlimit:10;" d="M692.56,387.89c0,0-0.49-2.97,1.98-5.69
					c1.49-1.64,9.75-6.18,10.89-3.22C706.67,382.19,698.5,389.62,692.56,387.89z"/>
				
					<line style="fill:none;stroke:#263238;stroke-width:0.5;stroke-miterlimit:10;" x1="692.56" y1="387.89" x2="700.71" y2="381.58"/>
			</g>
			<g>
				<line style="fill:none;stroke:#263238;stroke-width:2;stroke-miterlimit:10;" x1="688.6" y1="341.69" x2="694.3" y2="334.27"/>
				<path style="fill:#92E3A9;stroke:#263238;stroke-miterlimit:10;" d="M692.56,336.49c0,0-0.49-2.97,1.98-5.69
					c1.49-1.64,9.75-6.18,10.89-3.22C706.67,330.8,698.5,338.23,692.56,336.49z"/>
				
					<line style="fill:none;stroke:#263238;stroke-width:0.5;stroke-miterlimit:10;" x1="692.56" y1="336.49" x2="700.71" y2="330.18"/>
			</g>
			<g>
				<line style="fill:none;stroke:#263238;stroke-width:2;stroke-miterlimit:10;" x1="688.6" y1="316.33" x2="694.3" y2="308.9"/>
				<path style="fill:#92E3A9;stroke:#263238;stroke-miterlimit:10;" d="M692.56,311.13c0,0-0.49-2.97,1.98-5.69
					c1.49-1.64,9.75-6.18,10.89-3.22C706.67,305.43,698.5,312.86,692.56,311.13z"/>
				
					<line style="fill:none;stroke:#263238;stroke-width:0.5;stroke-miterlimit:10;" x1="692.56" y1="311.13" x2="700.71" y2="304.82"/>
			</g>
			<g>
				<line style="fill:none;stroke:#263238;stroke-width:2;stroke-miterlimit:10;" x1="688.6" y1="282.8" x2="694.3" y2="275.37"/>
				<path style="fill:#92E3A9;stroke:#263238;stroke-miterlimit:10;" d="M692.56,277.6c0,0-0.49-2.97,1.98-5.69
					c1.49-1.64,9.75-6.18,10.89-3.22C706.67,271.91,698.5,279.33,692.56,277.6z"/>
				
					<line style="fill:none;stroke:#263238;stroke-width:0.5;stroke-miterlimit:10;" x1="692.56" y1="277.6" x2="700.71" y2="271.29"/>
			</g>
			<g>
				<line style="fill:none;stroke:#263238;stroke-width:2;stroke-miterlimit:10;" x1="688.6" y1="256.44" x2="694.3" y2="249.02"/>
				<path style="fill:#92E3A9;stroke:#263238;stroke-miterlimit:10;" d="M692.56,251.24c0,0-0.49-2.97,1.98-5.69
					c1.49-1.64,9.75-6.18,10.89-3.22C706.67,245.55,698.5,252.98,692.56,251.24z"/>
				
					<line style="fill:none;stroke:#263238;stroke-width:0.5;stroke-miterlimit:10;" x1="692.56" y1="251.24" x2="700.71" y2="244.93"/>
				<path style="fill:#92E3A9;stroke:#263238;stroke-miterlimit:10;" d="M688.26,239.55c0,0-0.49-2.97,1.98-5.69
					c1.49-1.64,9.75-6.18,10.89-3.22C702.37,233.86,694.2,241.29,688.26,239.55z"/>
				
					<line style="fill:none;stroke:#263238;stroke-width:0.5;stroke-miterlimit:10;" x1="688.26" y1="239.55" x2="696.41" y2="233.24"/>
				<path style="fill:#92E3A9;stroke:#263238;stroke-miterlimit:10;" d="M688.66,239.9c0,0-3.01,0.18-5.45-2.57
					c-1.47-1.65-5.12-10.35-2.06-11.17C684.48,225.28,691.01,234.18,688.66,239.9z"/>
				
					<line style="fill:none;stroke:#263238;stroke-width:0.5;stroke-miterlimit:10;" x1="688.66" y1="239.9" x2="683.24" y2="231.14"/>
			</g>
		</g>
		<polygon style="fill:#263238;stroke:#263238;stroke-miterlimit:10;" points="695.67,453.67 677.46,453.67 675.18,407.68 
			697.94,407.68 		"/>
	</g>
</g>
<g id="Lamps">
	<g>
		
			<ellipse transform="matrix(0.9374 -0.3483 0.3483 0.9374 -19.8574 48.3061)" style="fill:#FFFFFF;stroke:#263238;stroke-miterlimit:10;" cx="124.43" cy="79.38" rx="7.45" ry="7.45"/>
		<polygon style="fill:#263238;" points="157.64,80.88 90.64,80.88 114.09,52.88 134.19,52.88 		"/>
		<rect x="119.72" y="47.47" style="fill:#263238;" width="8.84" height="8.84"/>
		<line style="fill:none;stroke:#263238;stroke-miterlimit:10;" x1="124.5" y1="49.13" x2="124.5" y2="23.55"/>
	</g>
	<g>
		
			<ellipse transform="matrix(0.9115 -0.4114 0.4114 0.9115 21.698 259.5875)" style="fill:#FFFFFF;stroke:#263238;stroke-miterlimit:10;" cx="613.93" cy="79.38" rx="7.45" ry="7.45"/>
		<polygon style="fill:#263238;" points="647.14,80.88 580.14,80.88 603.59,52.88 623.69,52.88 		"/>
		<rect x="609.22" y="47.47" style="fill:#263238;" width="8.84" height="8.84"/>
		<line style="fill:none;stroke:#263238;stroke-miterlimit:10;" x1="614" y1="49.13" x2="614" y2="23.55"/>
	</g>
</g>
<g id="Board">
	<g>
		
			<rect x="216.72" y="103.1" style="fill:#263238;stroke:#263238;stroke-linecap:round;stroke-linejoin:round;stroke-miterlimit:10;" width="254.7" height="155.93"/>
		
			<rect x="225.19" y="110.1" style="fill:#FFFFFF;stroke:#263238;stroke-linecap:round;stroke-linejoin:round;stroke-miterlimit:10;" width="237.75" height="141.94"/>
		<g>
			<g>
				<rect x="326.92" y="199.25" style="fill:#263238;" width="14.45" height="16.46"/>
				<g>
					<rect x="247.46" y="188.42" style="fill:#263238;" width="14.45" height="27.29"/>
					<rect x="267.32" y="177.16" style="fill:#7B78FF;" width="14.45" height="38.55"/>
					<rect x="287.19" y="164.6" style="fill:#263238;" width="14.45" height="51.12"/>
					<rect x="307.05" y="194.49" style="fill:#7B78FF;" width="14.45" height="21.23"/>
					<rect x="346.78" y="169.36" style="fill:#7B78FF;" width="14.45" height="46.35"/>
					<rect x="366.64" y="161.13" style="fill:#263238;" width="14.45" height="54.58"/>
					<rect x="386.51" y="153.77" style="fill:#7B78FF;" width="14.45" height="61.95"/>
					<rect x="406.37" y="176.29" style="fill:#263238;" width="14.45" height="39.42"/>
					<rect x="426.24" y="188.42" style="fill:#7B78FF;" width="14.45" height="27.29"/>
				</g>
			</g>
			
				<line style="fill:none;stroke:#263238;stroke-linecap:round;stroke-linejoin:round;stroke-miterlimit:10;" x1="309.4" y1="131.6" x2="378.74" y2="131.6"/>
			
				<line style="fill:none;stroke:#263238;stroke-linecap:round;stroke-linejoin:round;stroke-miterlimit:10;" x1="247.48" y1="224.8" x2="261.12" y2="224.8"/>
			
				<line style="fill:none;stroke:#263238;stroke-linecap:round;stroke-linejoin:round;stroke-miterlimit:10;" x1="267.42" y1="224.8" x2="281.06" y2="224.8"/>
			
				<line style="fill:none;stroke:#263238;stroke-linecap:round;stroke-linejoin:round;stroke-miterlimit:10;" x1="287.37" y1="224.8" x2="301.01" y2="224.8"/>
			
				<line style="fill:none;stroke:#263238;stroke-linecap:round;stroke-linejoin:round;stroke-miterlimit:10;" x1="307.31" y1="224.8" x2="320.95" y2="224.8"/>
			
				<line style="fill:none;stroke:#263238;stroke-linecap:round;stroke-linejoin:round;stroke-miterlimit:10;" x1="327.25" y1="224.8" x2="340.89" y2="224.8"/>
			
				<line style="fill:none;stroke:#263238;stroke-linecap:round;stroke-linejoin:round;stroke-miterlimit:10;" x1="347.2" y1="224.8" x2="360.84" y2="224.8"/>
			
				<line style="fill:none;stroke:#263238;stroke-linecap:round;stroke-linejoin:round;stroke-miterlimit:10;" x1="367.14" y1="224.8" x2="380.78" y2="224.8"/>
			
				<line style="fill:none;stroke:#263238;stroke-linecap:round;stroke-linejoin:round;stroke-miterlimit:10;" x1="387.09" y1="224.8" x2="400.73" y2="224.8"/>
			
				<line style="fill:none;stroke:#263238;stroke-linecap:round;stroke-linejoin:round;stroke-miterlimit:10;" x1="407.03" y1="224.8" x2="420.67" y2="224.8"/>
			
				<line style="fill:none;stroke:#263238;stroke-linecap:round;stroke-linejoin:round;stroke-miterlimit:10;" x1="426.97" y1="224.8" x2="440.61" y2="224.8"/>
			
				<line style="fill:none;stroke:#263238;stroke-linecap:round;stroke-linejoin:round;stroke-miterlimit:10;" x1="238.39" y1="215.71" x2="454.91" y2="215.71"/>
			
				<line style="fill:none;stroke:#263238;stroke-linecap:round;stroke-linejoin:round;stroke-miterlimit:10;" x1="238.39" y1="210.03" x2="242.93" y2="210.03"/>
			
				<line style="fill:none;stroke:#263238;stroke-linecap:round;stroke-linejoin:round;stroke-miterlimit:10;" x1="238.39" y1="204.13" x2="242.93" y2="204.13"/>
			
				<line style="fill:none;stroke:#263238;stroke-linecap:round;stroke-linejoin:round;stroke-miterlimit:10;" x1="238.39" y1="198.24" x2="242.93" y2="198.24"/>
			
				<line style="fill:none;stroke:#263238;stroke-linecap:round;stroke-linejoin:round;stroke-miterlimit:10;" x1="238.39" y1="192.34" x2="242.93" y2="192.34"/>
			
				<line style="fill:none;stroke:#263238;stroke-linecap:round;stroke-linejoin:round;stroke-miterlimit:10;" x1="238.39" y1="186.45" x2="242.93" y2="186.45"/>
			
				<line style="fill:none;stroke:#263238;stroke-linecap:round;stroke-linejoin:round;stroke-miterlimit:10;" x1="238.39" y1="180.55" x2="242.93" y2="180.55"/>
			
				<line style="fill:none;stroke:#263238;stroke-linecap:round;stroke-linejoin:round;stroke-miterlimit:10;" x1="238.39" y1="174.66" x2="242.93" y2="174.66"/>
			
				<line style="fill:none;stroke:#263238;stroke-linecap:round;stroke-linejoin:round;stroke-miterlimit:10;" x1="238.39" y1="168.76" x2="242.93" y2="168.76"/>
			
				<line style="fill:none;stroke:#263238;stroke-linecap:round;stroke-linejoin:round;stroke-miterlimit:10;" x1="238.39" y1="162.87" x2="242.93" y2="162.87"/>
			
				<line style="fill:none;stroke:#263238;stroke-linecap:round;stroke-linejoin:round;stroke-miterlimit:10;" x1="238.39" y1="156.98" x2="242.93" y2="156.98"/>
			
				<line style="fill:none;stroke:#263238;stroke-linecap:round;stroke-linejoin:round;stroke-miterlimit:10;" x1="238.39" y1="151.08" x2="242.93" y2="151.08"/>
			
				<line style="fill:none;stroke:#263238;stroke-linecap:round;stroke-linejoin:round;stroke-miterlimit:10;" x1="238.39" y1="145.19" x2="242.93" y2="145.19"/>
			<path style="fill:#C7C7C7;" d="M300.41,146.41h-10.36c-0.95,0-1.73,0.77-1.73,1.73v7.13c0,0.95,0.77,1.73,1.73,1.73h3.04
				l1.98,4.17l1.96-4.13l3.37-0.04c0.95,0,1.73-0.77,1.73-1.73v-7.13C302.14,147.18,301.36,146.41,300.41,146.41z"/>
			<path style="fill:#C7C7C7;" d="M279.54,160.11h-10.36c-0.95,0-1.73,0.77-1.73,1.73v7.13c0,0.95,0.77,1.73,1.73,1.73h3.04
				l1.98,4.17l1.96-4.13l3.37-0.04c0.95,0,1.73-0.77,1.73-1.73v-7.13C281.26,160.88,280.49,160.11,279.54,160.11z"/>
			<path style="fill:#C7C7C7;" d="M259.54,169.02h-10.36c-0.95,0-1.73,0.77-1.73,1.73v7.13c0,0.95,0.77,1.73,1.73,1.73h3.04
				l1.98,4.17l1.96-4.13l3.37-0.04c0.95,0,1.73-0.77,1.73-1.73v-7.13C261.26,169.79,260.49,169.02,259.54,169.02z"/>
			<path style="fill:#C7C7C7;" d="M319.76,177.72h-10.36c-0.95,0-1.73,0.77-1.73,1.73v7.13c0,0.95,0.77,1.73,1.73,1.73h3.04
				l1.98,4.17l1.96-4.13l3.37-0.04c0.95,0,1.73-0.77,1.73-1.73v-7.13C321.49,178.49,320.71,177.72,319.76,177.72z"/>
			<path style="fill:#C7C7C7;" d="M339.76,181.41h-10.36c-0.95,0-1.73,0.77-1.73,1.73v7.13c0,0.95,0.77,1.73,1.73,1.73h3.04
				l1.98,4.17l1.96-4.13l3.37-0.04c0.95,0,1.73-0.77,1.73-1.73v-7.13C341.49,182.19,340.72,181.41,339.76,181.41z"/>
			<path style="fill:#C7C7C7;" d="M359.77,152.5h-10.36c-0.95,0-1.73,0.77-1.73,1.73v7.13c0,0.95,0.77,1.73,1.73,1.73h3.04
				l1.98,4.17l1.96-4.13l3.37-0.04c0.95,0,1.73-0.77,1.73-1.73v-7.13C361.49,153.27,360.72,152.5,359.77,152.5z"/>
			<path style="fill:#C7C7C7;" d="M379.33,143.58h-10.36c-0.95,0-1.73,0.77-1.73,1.73v7.13c0,0.95,0.77,1.73,1.73,1.73h3.04
				l1.98,4.17l1.96-4.13l3.37-0.04c0.95,0,1.73-0.77,1.73-1.73v-7.13C381.06,144.36,380.29,143.58,379.33,143.58z"/>
			<path style="fill:#C7C7C7;" d="M399.12,136.63h-10.36c-0.95,0-1.73,0.77-1.73,1.73v7.13c0,0.95,0.77,1.73,1.73,1.73h3.04
				l1.98,4.17l1.96-4.13l3.37-0.04c0.95,0,1.73-0.77,1.73-1.73v-7.13C400.85,137.4,400.07,136.63,399.12,136.63z"/>
			<path style="fill:#C7C7C7;" d="M418.47,159.24h-10.36c-0.95,0-1.73,0.77-1.73,1.73v7.13c0,0.95,0.77,1.73,1.73,1.73h3.04
				l1.98,4.17l1.96-4.13l3.37-0.04c0.95,0,1.73-0.77,1.73-1.73v-7.13C420.2,160.01,419.42,159.24,418.47,159.24z"/>
			<path style="fill:#C7C7C7;" d="M439.12,170.98h-10.36c-0.95,0-1.73,0.77-1.73,1.73v7.13c0,0.95,0.77,1.73,1.73,1.73h3.04
				l1.98,4.17l1.96-4.13l3.37-0.04c0.95,0,1.73-0.77,1.73-1.73v-7.13C440.85,171.75,440.08,170.98,439.12,170.98z"/>
		</g>
	</g>
</g>
<g id="Character_2">
	<g>
		<g>
			<path style="fill:#FFFFFF;stroke:#263238;stroke-linecap:round;stroke-linejoin:round;stroke-miterlimit:10;" d="M374.36,217.98
				l-5.1-6.07c0,0-1.94-5.83-3.4-7.78c-1.46-1.94-5.1-2.19-9.48-4.86c-4.37-2.67-6.07-2.43-5.35,0.73c0.73,3.16,5.83,6.56,5.83,6.56
				s-9.72-0.24-10.45-0.49c-0.73-0.24-7.29-2.19-8.75-3.16c-1.46-0.97-4.37,0-2.92,3.16c1.46,3.16,6.07,9.96,9.48,12.39
				c3.4,2.43,2.67,2.92,9.23,3.89c6.56,0.97,8.26,0.73,8.26,0.73l3.89,3.64L374.36,217.98z"/>
			<path style="fill:#FFFFFF;stroke:#263238;stroke-linecap:round;stroke-linejoin:round;stroke-miterlimit:10;" d="M342.53,216.76
				c0,0-4.13-14.09-1.7-12.15c2.43,1.94,7.29,10.21,7.29,10.21s11.42-1.7,14.58,1.7"/>
		</g>
		<polygon style="fill:#FFFFFF;stroke:#263238;stroke-linecap:round;stroke-linejoin:round;stroke-miterlimit:10;" points="
			381.16,223.32 372.42,216.52 363.43,226.97 373.14,233.29 		"/>
		<g>
			<g>
				<path style="fill:#263238;stroke:#263238;stroke-linecap:round;stroke-linejoin:round;stroke-miterlimit:10;" d="M430.61,285.09
					l-1.75,11c0,0-6,17.24-5.75,20.49c0.25,3.25,7.37,99.02,7.37,99.02h78.72c0,0-3.12-102.52-3.37-105.02
					c-0.25-2.5-2.45-20.43-2.45-20.43s-45.78,0.19-47.28-0.06c-1.5-0.25-26.24-7-26.24-7L430.61,285.09z"/>
				
					<line style="fill:none;stroke:#696969;stroke-linecap:round;stroke-linejoin:round;stroke-miterlimit:10;" x1="452.11" y1="332.07" x2="469.85" y2="337.07"/>
				
					<line style="fill:none;stroke:#696969;stroke-linecap:round;stroke-linejoin:round;stroke-miterlimit:10;" x1="463.1" y1="335.57" x2="466.16" y2="413.04"/>
			</g>
			<g>
				<path style="fill:#878787;stroke:#263238;stroke-linecap:round;stroke-linejoin:round;stroke-miterlimit:10;" d="M467.85,301.58
					c18.4-0.67,26.52-1.55,35.95-8.05c-0.25-2.02-0.42-3.39-0.42-3.39s-45.78,0.19-47.28-0.06c-1.5-0.25-26.24-7-26.24-7l0.75,2
					l-1.27,7.97C435.24,295.81,450.87,302.2,467.85,301.58z"/>
				<polygon style="fill:#FFFFFF;stroke:#263238;stroke-linecap:round;stroke-linejoin:round;stroke-miterlimit:10;" points="
					458.6,297.33 458.6,300.83 467.85,301.58 468.39,297.43 				"/>
			</g>
		</g>
		<g>
			<path style="fill:#FFFFFF;stroke:#263238;stroke-linecap:round;stroke-linejoin:round;stroke-miterlimit:10;" d="M457.94,181.53
				c0,0-34.26,9.48-35.23,10.45c-0.97,0.97-5.59,28.67-5.59,28.67l-8.99,14.34l-25.76-13.61c0,0-5.1,2.43-6.32,3.89
				s-8.02,8.99-5.83,11.42c2.19,2.43,33.05,24.3,37.66,27.21c4.62,2.92,6.56,3.64,8.75,1.21c2.19-2.43,12.88-17.25,12.88-17.25
				l-0.49,31.34c0,0-3.16,1.21-2.43,4.13c0.73,2.92,2.19,4.62,2.19,4.62h2.92c0,0,11.91,10.45,36.69,9.48s33.05-4.86,34.99-7.29
				c1.94-2.43,2.19-2.43,1.7-4.37c-0.49-1.94-0.73-4.62-0.73-4.62l6.8-42.52L530.6,252c0,0,18.71,2.92,21.87,0.73
				c3.16-2.19,4.13-3.64,1.7-8.02c-2.43-4.37-22.6-28.19-22.6-28.19s-7.78-19.2-8.99-20.9s-33.29-14.09-33.29-14.09H457.94z"/>
			<path style="fill:none;stroke:#263238;stroke-linecap:round;stroke-linejoin:round;stroke-miterlimit:10;" d="M408.13,234.99
				c0,0,3.35,4.4,3.58,8.11"/>
			<polyline style="fill:none;stroke:#263238;stroke-linecap:round;stroke-linejoin:round;stroke-miterlimit:10;" points="
				429.52,247.87 429.52,217.74 427.57,207.77 			"/>
			
				<line style="fill:none;stroke:#263238;stroke-linecap:round;stroke-linejoin:round;stroke-miterlimit:10;" x1="424.62" y1="210.62" x2="423.2" y2="207.29"/>
			
				<line style="fill:none;stroke:#263238;stroke-linecap:round;stroke-linejoin:round;stroke-miterlimit:10;" x1="429.52" y1="222.11" x2="426.11" y2="214.12"/>
			
				<line style="fill:none;stroke:#263238;stroke-linecap:round;stroke-linejoin:round;stroke-miterlimit:10;" x1="511.16" y1="238.63" x2="517.23" y2="209.72"/>
			<path style="fill:none;stroke:#263238;stroke-linecap:round;stroke-linejoin:round;stroke-miterlimit:10;" d="M519.17,218.26
				c-2.25,3.4-4.63,7.32-5.34,9.68"/>
			<path style="fill:none;stroke:#263238;stroke-linecap:round;stroke-linejoin:round;stroke-miterlimit:10;" d="M523.79,211.66
				c0,0-1.03,1.38-2.43,3.38"/>
			<path style="fill:none;stroke:#263238;stroke-linecap:round;stroke-linejoin:round;stroke-miterlimit:10;" d="M522.33,227.21
				c0,0,5.1-6.8,11.42-6.8"/>
			<path style="fill:none;stroke:#263238;stroke-linecap:round;stroke-linejoin:round;stroke-miterlimit:10;" d="M489.72,275.93
				c5.4-7.3,13.16-17.95,15.61-22.24"/>
			<path style="fill:none;stroke:#263238;stroke-linecap:round;stroke-linejoin:round;stroke-miterlimit:10;" d="M484.19,283.34
				c0,0,1.23-1.63,3.12-4.16"/>
			
				<line style="fill:none;stroke:#263238;stroke-linecap:round;stroke-linejoin:round;stroke-miterlimit:10;" x1="502.41" y1="269.98" x2="493.66" y2="283.34"/>
		</g>
		<path style="fill:#FFFFFF;stroke:#263238;stroke-linecap:round;stroke-linejoin:round;stroke-miterlimit:10;" d="M464.99,174
			c0,0-2.92,0.24-3.64,0.97c-0.73,0.73-6.07,6.8-6.07,6.8s0.73,22.35,1.94,21.63s10.69-9.48,11.66-10.45
			c0.97-0.97,14.09,11.18,14.82,11.66c0.73,0.49,1.21,2.67,1.94,0.49c0.73-2.19,8.02-21.38,7.29-23.33
			c-0.73-1.94-5.35-7.78-5.35-7.78S469.85,177.64,464.99,174z"/>
		<g>
			<path style="fill:#FFFFFF;stroke:#263238;stroke-linecap:round;stroke-linejoin:round;stroke-miterlimit:10;" d="M459.65,126.86
				c0,0-6.56,8.99-6.07,10.93c0.49,1.94-0.97,5.35-0.97,5.35s-8.75,6.8-7.78,8.75c0.97,1.94,3.64,4.37,3.64,4.37
				s-0.24,17.01,1.94,17.01s10.93,0.49,10.93,0.49s7.29,26.73,9.72,25.27c2.43-1.46,16.28-23.08,16.28-23.08l2.67-10.21
				c0,0,9.96-4.37,12.88-18.71c2.92-14.34-5.1-22.84-10.21-26.48s-15.55-4.13-15.55-4.13s3.89-2.43,0-4.13
				c-3.89-1.7-9.23,0.73-9.23,0.73s-0.24-6.32-5.83-2.92C456.49,113.5,449.68,120.06,459.65,126.86z"/>
			<path style="fill:#263238;stroke:#263238;stroke-linecap:round;stroke-linejoin:round;stroke-miterlimit:10;" d="M492.69,120.54
				c-5.1-3.64-15.55-4.13-15.55-4.13s3.89-2.43,0-4.13c-3.89-1.7-9.23,0.73-9.23,0.73s-0.24-6.32-5.83-2.92
				c-5.59,3.4-12.39,9.96-2.43,16.77c0,0,20.17,1.7,14.82,5.1c-5.35,3.4-7.78,3.64-4.13,6.07c3.64,2.43,6.8,7.78,6.8,7.78
				s-2.67,5.35-1.46,6.32c1.21,0.97,2.67,1.21,3.64-0.24s3.89-6.56,8.02-5.35c4.13,1.21,3.64,6.56,0.49,9.96
				c-3.16,3.4-7.53,4.37-7.53,4.37s5.83,3.4,7.78,4.13c0.56,0.21,1.74,0.19,3.16,0.07c2.74-1.68,9.38-6.79,11.67-18.05
				C505.81,132.69,497.79,124.19,492.69,120.54z"/>
			<path style="fill:none;stroke:#263238;stroke-linecap:round;stroke-linejoin:round;stroke-miterlimit:10;" d="M452.36,159.42
				c0,0,4.62-0.24,6.8-2.67c0,0-0.49,4.86-2.19,5.1C455.27,162.09,452.36,159.42,452.36,159.42z"/>
			<path style="fill:#263238;" d="M459.4,143.75c0,1.01-0.44,1.82-0.97,1.82c-0.54,0-0.97-0.82-0.97-1.82s0.44-1.82,0.97-1.82
				C458.97,141.93,459.4,142.74,459.4,143.75z"/>
			<path style="fill:none;stroke:#263238;stroke-linecap:round;stroke-linejoin:round;stroke-miterlimit:10;" d="M456,140.23
				c0,0,3.89-2.43,5.83,0.73"/>
			<polygon style="fill:#263238;stroke:#263238;stroke-linecap:round;stroke-linejoin:round;stroke-miterlimit:10;" points="
				461.35,173.76 469.61,173.51 474.47,168.41 464.99,184.69 			"/>
		</g>
		<g>
			<path style="fill:none;stroke:#263238;stroke-linecap:round;stroke-linejoin:round;stroke-miterlimit:10;" d="M508.97,235.47
				l-7.53-3.89c0,0-1.94-2.67-3.89-3.64c-1.94-0.97-3.64,0-9.48-1.7c-5.83-1.7-8.02-1.46-7.05,1.21c0.97,2.67,7.05,2.92,7.05,2.92
				l2.43,1.46l-16.28,3.16l-8.31,3.59c-0.4,0.17-0.64,0.6-0.58,1.03l0,0c0.08,0.53,0.57,0.9,1.1,0.82l7.3-1.07l8.38-0.61l-13.5,6.17
				c-0.56,0.3-0.87,0.93-0.75,1.56l0,0c0.16,0.86,1.03,1.4,1.87,1.15l13.3-3.14l-8.6,6.65c-0.53,0.35-0.74,1.03-0.48,1.62l0,0
				c0.29,0.65,1.05,0.95,1.7,0.67l8.43-3.64l-4.14,5.38c-0.23,0.3-0.22,0.72,0.01,1.01l0,0c0.27,0.33,0.75,0.4,1.1,0.16
				c1.91-1.34,7.64-5.35,8.24-5.55c0.73-0.24,6.56-2.67,7.53-2.92c0.97-0.24,4.62-1.46,4.62-1.46l7.78,2.67L508.97,235.47z"/>
			<path style="fill:#FFFFFF;stroke:#263238;stroke-linecap:round;stroke-linejoin:round;stroke-miterlimit:10;" d="M516.26,236.69
				l-7.29-1.21l-1.46,15.55l8.26,1.7C515.77,252.73,516.75,239.6,516.26,236.69z"/>
			<path style="fill:#FFFFFF;stroke:#263238;stroke-linecap:round;stroke-linejoin:round;stroke-miterlimit:10;" d="M549.79,238.63
				c0,0-32.32-4.86-33.53-1.94c-1.21,2.92-3.4,17.49-0.24,18.71s33.05,12.88,35.48,10.93c2.43-1.94,7.29-7.05,7.29-12.64
				C558.78,248.11,549.79,238.63,549.79,238.63z"/>
		</g>
	</g>
</g>
<g id="Table">
	<polyline style="fill:#FFFFFF;stroke:#263238;stroke-linecap:round;stroke-linejoin:round;stroke-miterlimit:10;" points="
		70.17,472.84 257.88,376.91 509.21,376.91 693.77,472.84 	"/>
</g>
<g id="Sheets">
	<g>
		<polygon style="fill:#FFFFFF;stroke:#263238;stroke-linecap:round;stroke-linejoin:round;stroke-miterlimit:10;" points="
			376.94,401.61 345.71,421.58 391.28,426.19 417.39,405.71 		"/>
		<polygon style="fill:#FFFFFF;stroke:#263238;stroke-linecap:round;stroke-linejoin:round;stroke-miterlimit:10;" points="
			402.03,408.78 368.24,432.34 412.78,436.94 441.97,413.9 		"/>
		<polygon style="fill:#FFFFFF;stroke:#263238;stroke-linecap:round;stroke-linejoin:round;stroke-miterlimit:10;" points="
			331.88,402.13 319.59,431.31 363.63,432.85 370.8,403.15 		"/>
	</g>
</g>
<g id="Device_2">
	<g>
		<polygon style="fill:#C7C7C7;stroke:#263238;stroke-linecap:round;stroke-linejoin:round;stroke-miterlimit:10;" points="
			446.97,393.38 495.3,391.99 524.79,420.59 468.62,422.27 		"/>
		<polygon style="fill:#C7C7C7;stroke:#263238;stroke-linecap:round;stroke-linejoin:round;stroke-miterlimit:10;" points="
			497.33,398.22 482.03,399.16 496.01,414.28 512.44,413.14 		"/>
		<polygon style="fill:#263238;stroke:#263238;stroke-linecap:round;stroke-linejoin:round;stroke-miterlimit:10;" points="
			457.59,397.14 476.33,396.61 494.47,417.4 473.33,418.14 		"/>
		<polygon style="fill:#878787;stroke:#263238;stroke-linecap:round;stroke-linejoin:round;stroke-miterlimit:10;" points="
			468.62,422.27 455.84,370.59 435.03,350.09 446.97,393.38 		"/>
	</g>
</g>
<g id="Character_3">
	<g>
		<path style="fill:#263238;stroke:#263238;stroke-linecap:round;stroke-linejoin:round;stroke-miterlimit:10;" d="M619.25,343.19
			l25.56,6.85c2.31,0.62,4.38,1.92,5.95,3.72l0,0c2.71,3.12,3.61,7.42,2.39,11.37l-22.29,74.22l-32.52-16.58L619.25,343.19z"/>
		<path style="fill:#E0E0E0;stroke:#263238;stroke-linecap:round;stroke-linejoin:round;stroke-miterlimit:10;" d="M562.29,317.75
			c0,0-14.33,5.21-16.41,7.55c-2.08,2.34-8.07,42.2-8.07,42.2s-5.99,2.08-5.99,3.65c0,1.56,0,1.56,0,1.56s-6.51,2.87-8.86,4.69
			c-2.34,1.82-3.13,2.08,0,5.21c3.13,3.13,7.81,8.86,13.28,10.68c5.47,1.82,6.63,2.07,6.63,2.07l65.35,32.68
			c0,0,20.49-94.39,20.75-96.48c0.26-2.08-30.74-17.45-33.6-19.01C592.5,310.98,562.29,317.75,562.29,317.75z"/>
		<path style="fill:#E0E0E0;stroke:#263238;stroke-linecap:round;stroke-linejoin:round;stroke-miterlimit:10;" d="M564.11,316.19
			c0,0-2.87,3.13-2.6,4.43s1.04,8.6,1.04,10.42s0,10.94,0,10.94l9.12-23.7l-1.56-4.43L564.11,316.19z"/>
		<path style="fill:#FFFFFF;stroke:#263238;stroke-linecap:round;stroke-linejoin:round;stroke-miterlimit:10;" d="M597.19,305.51
			l-6.84-3.05l-22.33,18.42c0,0-2.87,5.47-4.17,13.8c-1.3,8.34-3.39,33.86-3.39,33.86s10.16-21.62,11.46-23.96
			c1.3-2.34,1.56-12.24,1.56-12.24s12.5-4.17,16.41-11.46C593.81,313.58,597.19,305.51,597.19,305.51z"/>
		<g>
			<path style="fill:#FFFFFF;stroke:#263238;stroke-linecap:round;stroke-linejoin:round;stroke-miterlimit:10;" d="M541.45,280.24
				c0,0,1.04,6.25,1.82,7.55c0.78,1.3,1.82,6.51,1.82,6.51s-0.52,7.29,0.78,9.64c1.3,2.34,8.34,15.37,11.72,15.89
				c3.39,0.52,8.86-1.82,8.86-1.82l0.52,6.25c0,0,3.65,2.34,12.24-1.3c8.6-3.65,12.76-9.64,13.28-11.98
				c0.52-2.34-4.17-13.8-4.17-13.8v-6.77c0,0,4.17-4.69,3.13-11.72c-1.04-7.03,0.52-9.12-13.28-12.76
				c-13.8-3.65-30.48,2.08-34.38,4.69S541.45,280.24,541.45,280.24z"/>
			<path style="fill:#263238;stroke:#263238;stroke-linecap:round;stroke-linejoin:round;stroke-miterlimit:10;" d="M573.23,279.46
				l2.08,1.82l0.78,5.73c0,0,2.6,1.82,3.39-0.78c0.78-2.6-0.52-7.03,2.6-8.6c3.13-1.56,5.99-2.08,5.99,3.39
				c0,5.47-2.87,14.33-2.87,14.33s2.6,3.13,3.13,1.82c0.52-1.3,4.17-22.66,4.17-22.66s-5.21-3.13-8.6-4.17
				C580.52,269.3,573.23,279.46,573.23,279.46z"/>
			<path style="fill:#263238;stroke:#263238;stroke-linecap:round;stroke-linejoin:round;stroke-miterlimit:10;" d="M563.07,271.13
				c0,0-6.51,2.87-7.03,5.99c-0.52,3.13-4.17,8.07-9.64,8.07s-4.95-5.99-8.07-6.25c-3.13-0.26-8.86,0.78-8.86-8.6
				c0-9.38,6.51-9.9,9.12-11.72c2.6-1.82-0.78-2.08,3.39-7.29c4.17-5.21,7.81-3.39,11.46-3.39c3.65,0,2.6-4.95,9.12-5.47
				c6.51-0.52,8.86,1.56,9.9,2.87c1.04,1.3,6.51-0.26,10.42,2.34c3.91,2.6,4.17,4.95,6.25,7.29c2.08,2.34,5.99,0.78,5.47,5.99
				c-0.52,5.21-2.08,7.55-1.3,8.86c0.78,1.3,2.34,1.3,1.56,3.65c-0.78,2.34-3.65,4.43-3.39,5.21c0.26,0.78-5.99,1.3-9.38-1.04
				c-3.39-2.34-2.6,1.82-8.86,1.82C566.98,279.46,562.29,274.51,563.07,271.13z"/>
			<path style="fill:#FFFFFF;stroke:#263238;stroke-linecap:round;stroke-linejoin:round;stroke-miterlimit:10;" d="M579.48,286.23
				c0,0,0.26-5.99,2.6-8.6c2.34-2.6,6.51,0.52,5.73,6.25c-0.78,5.73-4.17,11.98-6.77,11.72"/>
			<path style="fill:#FFFFFF;stroke:#263238;stroke-linecap:round;stroke-linejoin:round;stroke-miterlimit:10;" d="M566.98,324.26
				c0,0,3.65,2.34,12.24-1.3c8.6-3.65,12.76-9.64,13.28-11.98c0.28-1.26-0.95-5.18-2.15-8.52c-7.1,10.88-23.9,15.56-23.9,15.56
				L566.98,324.26z"/>
			<polygon style="fill:#263238;stroke:#263238;stroke-linecap:round;stroke-linejoin:round;stroke-miterlimit:10;" points="
				566.46,318.01 578.44,308.37 573.75,314.88 			"/>
			<path style="fill:none;stroke:#263238;stroke-linecap:round;stroke-linejoin:round;stroke-miterlimit:10;" d="M551.35,305.51
				c0,0,5.99,3.65,13.02-3.65"/>
			<path style="fill:#263238;" d="M562.1,291.86c0.42,1.3,0.26,2.52-0.35,2.72s-1.46-0.69-1.88-1.99c-0.42-1.3-0.26-2.52,0.35-2.72
				C560.84,289.67,561.68,290.56,562.1,291.86z"/>
			<path style="fill:#263238;" d="M550.12,291.86c0.42,1.3,0.26,2.52-0.35,2.72c-0.62,0.2-1.46-0.69-1.88-1.99
				c-0.42-1.3-0.26-2.52,0.35-2.72C548.86,289.67,549.7,290.56,550.12,291.86z"/>
			<path style="fill:none;stroke:#263238;stroke-linecap:round;stroke-linejoin:round;stroke-miterlimit:10;" d="M557.6,287.54
				c0,0,4.95-2.6,7.55,0.52"/>
			<path style="fill:none;stroke:#263238;stroke-linecap:round;stroke-linejoin:round;stroke-miterlimit:10;" d="M545.1,287.27
				c0,0,3.65-1.3,4.17,0.26l2.08,4.43l-1.3,11.46l6.77-1.3"/>
		</g>
		<path style="fill:#E0E0E0;stroke:#263238;stroke-linecap:round;stroke-linejoin:round;stroke-miterlimit:10;" d="M597.19,305.51
			c0,0-16.15,22.4-23.7,26.83l5.73,9.9c0,0,15.63-14.07,18.49-20.32c2.87-6.25,2.87-6.25,2.87-6.25L597.19,305.51z"/>
		<g>
			<path style="fill:#E0E0E0;stroke:#263238;stroke-linecap:round;stroke-linejoin:round;stroke-miterlimit:10;" d="M600.06,340.15
				l-5.21,45.32c0,0-3.13,0-3.13,2.08s-0.52,4.43-0.52,4.43l-52.62,10.42c0,0-19.01-2.6-20.58-2.08c-1.56,0.52-5.94,4.58-7.5,5.88
				c-1.56,1.3-7.93,7.2-6.89,8.77c1.04,1.56,5.48-2.19,5.48-2.19s-3.85,5.52-1.77,5c2.08-0.52,4.74-3.43,4.74-3.43l4.07-2.5
				c0,0-4.91,6.46-3.34,6.2c1.56-0.26,4.43-2.34,4.43-2.34l1.82-1.04c0,0-3.39,3.39-1.56,3.91c1.82,0.52,5.73-3.65,5.73-3.65
				l3.39-2.08c0,0,2.87,1.82,7.29,0.52c4.43-1.3,7.55-2.6,7.55-2.6s63.03,5.73,67.2,4.43c4.17-1.3,8.34-1.56,9.38-3.91
				c1.04-2.34,9.9-78.14,10.94-79.7c1.04-1.56-16.41-8.34-16.41-8.34"/>
			<g>
				<path style="fill:#E0E0E0;stroke:#263238;stroke-linecap:round;stroke-linejoin:round;stroke-miterlimit:10;" d="M563.6,397.45
					l-25.02,4.95l11.67-2.31c1.87,1.84,4.03,5.34,4.31,11.8c3.8,0.32,8.16,0.69,12.72,1.06C570.1,403.44,564.41,398.14,563.6,397.45
					z"/>
			</g>
			<path style="fill:none;stroke:#263238;stroke-linecap:round;stroke-linejoin:round;stroke-miterlimit:10;" d="M593,392.89
				c0,0,13.62,4.7,18,8.77c4.38,4.07-4.54-7.2-10.49-10.18"/>
			<path style="fill:#FFFFFF;stroke:#263238;stroke-linecap:round;stroke-linejoin:round;stroke-miterlimit:10;" d="M550.26,400.09
				l-11.67,2.31c0,0-19.01-2.6-20.58-2.08c-1.56,0.52-5.94,4.58-7.5,5.88c-1.56,1.3-7.93,7.2-6.89,8.77
				c1.04,1.56,5.48-2.19,5.48-2.19s-3.85,5.52-1.77,5c2.08-0.52,4.74-3.43,4.74-3.43l4.07-2.5c0,0-4.91,6.46-3.34,6.2
				c1.56-0.26,4.43-2.34,4.43-2.34l1.82-1.04c0,0-3.39,3.39-1.56,3.91c1.82,0.52,5.73-3.65,5.73-3.65l3.39-2.08
				c0,0,2.87,1.82,7.29,0.52c4.43-1.3,7.55-2.6,7.55-2.6s5.39,0.49,13.11,1.15C554.28,405.43,552.13,401.93,550.26,400.09z"/>
			<path style="fill:none;stroke:#263238;stroke-linecap:round;stroke-linejoin:round;stroke-miterlimit:10;" d="M519.05,414.65
				c0,0,4.61-4.69,6.48-5.32"/>
			<path style="fill:none;stroke:#263238;stroke-linecap:round;stroke-linejoin:round;stroke-miterlimit:10;" d="M516.14,411.83
				c0,0,4.7-5.17,6.57-5.79"/>
			<path style="fill:none;stroke:#263238;stroke-linecap:round;stroke-linejoin:round;stroke-miterlimit:10;" d="M509.1,412.77
				c0,0,7.36-8.45,10.02-9.55"/>
		</g>
		<g>
			<path style="fill:#FFFFFF;stroke:#263238;stroke-linecap:round;stroke-linejoin:round;stroke-miterlimit:10;" d="M522.04,380.1
				l-5.94,7.46c0,0-18.12,0.61-21.17,1.37c-3.05,0.76-7,9.75-7,11.57c0,1.83,1.83,1.68,2.74,0.46c0.91-1.22,3.65-6.85,3.65-6.85
				s-3.05,8.83-3.05,9.75c0,0.91,1.98,0,1.98,0s-0.15,1.83,0.91,2.28c1.07,0.46,3.5-1.07,3.5-1.07s0.61,1.22,2.44,0.15
				c1.83-1.07,6.24-8.22,7.46-8.98c1.22-0.76,4.72-0.15,4.72-0.15s-3.5,1.68-4.87,4.57c-1.37,2.89-1.07,3.81-0.15,3.5
				c0.91-0.3,3.96-3.35,5.79-4.26c1.83-0.91,6.4-0.61,7.77-1.22c1.37-0.61,13.71-7.31,13.71-7.31s-0.15-6.85-4.26-9.59
				C526.15,379.03,522.04,380.1,522.04,380.1z"/>
			<path style="fill:#E0E0E0;stroke:#263238;stroke-linecap:round;stroke-linejoin:round;stroke-miterlimit:10;" d="M530.26,381.77
				c-4.11-2.74-8.22-1.68-8.22-1.68l-3.77,4.74c1.29,0.12,8.92,1.2,9.79,10.03c3.3-1.78,6.47-3.5,6.47-3.5
				S534.37,384.51,530.26,381.77z"/>
			<path style="fill:none;stroke:#263238;stroke-linecap:round;stroke-linejoin:round;stroke-miterlimit:10;" d="M516.1,387.56
				c0,0,4.57-0.3,5.94,3.05"/>
			
				<line style="fill:none;stroke:#263238;stroke-linecap:round;stroke-linejoin:round;stroke-miterlimit:10;" x1="493.26" y1="403.85" x2="498.89" y2="391.67"/>
			
				<line style="fill:none;stroke:#263238;stroke-linecap:round;stroke-linejoin:round;stroke-miterlimit:10;" x1="497.67" y1="405.07" x2="502.85" y2="392.43"/>
			
				<line style="fill:none;stroke:#263238;stroke-linecap:round;stroke-linejoin:round;stroke-miterlimit:10;" x1="494.32" y1="394.11" x2="495.85" y2="391.21"/>
		</g>
		<path style="fill:none;stroke:#263238;stroke-linecap:round;stroke-linejoin:round;stroke-miterlimit:10;" d="M542.87,395.35
			l0.95-12.36c0,0-0.61-5.94-0.61-11.27s6.4-39.44,6.4-39.44"/>
		<path style="fill:none;stroke:#263238;stroke-linecap:round;stroke-linejoin:round;stroke-miterlimit:10;" d="M558.89,372.94
			c0,0-0.15,8.53-0.61,13.1c-0.46,4.57-2.44,10.51-2.44,10.51"/>
	</g>
</g>
<g id="Device_1">
	<g>
		<polygon style="fill:#C7C7C7;stroke:#263238;stroke-linecap:round;stroke-linejoin:round;stroke-miterlimit:10;" points="
			328.81,392.75 276.24,391.28 246.94,421.37 306.03,423.14 		"/>
		<polygon style="fill:#C7C7C7;stroke:#263238;stroke-linecap:round;stroke-linejoin:round;stroke-miterlimit:10;" points="
			276.88,396.09 290.45,396.52 277.09,413.27 262.03,412.42 		"/>
		<polygon style="fill:#263238;stroke:#263238;stroke-linecap:round;stroke-linejoin:round;stroke-miterlimit:10;" points="
			317.63,396.7 295.97,396.09 280.48,417.51 301.07,418.79 		"/>
		<polygon style="fill:#878787;stroke:#263238;stroke-linecap:round;stroke-linejoin:round;stroke-miterlimit:10;" points="
			306.03,423.14 319.47,368.77 341.37,347.2 328.81,392.75 		"/>
	</g>
</g>
<g id="Character_1">
	<g>
		<g>
			<path style="fill:none;stroke:#263238;stroke-linecap:round;stroke-linejoin:round;stroke-miterlimit:10;" d="M293.86,365.33
				c0,0,4.67,4.03,3.93,5.2c-0.74,1.17-1.7,0.64-3.08,0.21c-1.38-0.42-6.48-3.82-6.48-3.82S292.69,364.48,293.86,365.33z"/>
			<path style="fill:#FFFFFF;stroke:#263238;stroke-linecap:round;stroke-linejoin:round;stroke-miterlimit:10;" d="M288.23,366.92
				c0,0,8.07,6.05,7.22,6.9c-0.85,0.85-1.7,0.42-4.14-0.21s-6.26-4.03-6.26-4.03L288.23,366.92z"/>
			<path style="fill:#FFFFFF;stroke:#263238;stroke-linecap:round;stroke-linejoin:round;stroke-miterlimit:10;" d="M285.16,370.95
				c0,0,4.57,3.93,4.46,4.35c-0.11,0.42-0.64,1.27-2.34,0.96c-1.7-0.32-5.2-2.97-5.2-2.97L285.16,370.95z"/>
			<path style="fill:#FFFFFF;stroke:#263238;stroke-linecap:round;stroke-linejoin:round;stroke-miterlimit:10;" d="M265.47,373.38
				c0,0,13.32-12.51,13.74-12.72c0.42-0.21,9.87-1.7,12.42-1.7c2.55,0,9.13,5.2,8.28,5.73c-0.85,0.53-5.63-0.74-5.63-0.74h-2.76
				c0,0-5.95,6.79-11.36,9.98c-5.41,3.19-13.48,6.05-13.48,6.05L265.47,373.38z"/>
			<g>
				<path style="fill:#263238;" d="M277.44,365.66c-0.53,0-0.98-0.4-1.04-0.93c-0.06-0.58,0.35-1.1,0.93-1.16l28.8-2.66
					c0.29-0.03,0.55,0.18,0.58,0.46c0.03,0.29-0.18,0.55-0.46,0.58l-28.69,3.71C277.52,365.66,277.48,365.66,277.44,365.66z"/>
			</g>
			<path style="fill:#FFFFFF;stroke:#263238;stroke-linecap:round;stroke-linejoin:round;stroke-miterlimit:10;" d="M277.3,367.77
				c0,0,10.4-4.57,12-5.1s11.04,1.49,10.62,2.02c-0.42,0.53-0.11,1.38-2.12,1.91c-2.02,0.53-6.69,0.21-6.69,0.21
				s-5.84,5.41-8.92,7.86c-3.08,2.44-5.52,4.03-8.6,4.35c-3.08,0.32-5.73,0.11-5.73,0.11"/>
		</g>
		<polygon style="fill:#FFFFFF;stroke:#263238;stroke-linecap:round;stroke-linejoin:round;stroke-miterlimit:10;" points="
			257.71,374.62 265.47,373.38 267.02,383.61 258.95,385.16 		"/>
		<path style="fill:#FFFFFF;stroke:#263238;stroke-linecap:round;stroke-linejoin:round;stroke-miterlimit:10;" d="M170.86,323.05
			c0,0,11.83,2.27,16.79,5.68c4.96,3.41,16.19,27.84,18.05,31.87c1.86,4.03,5.92,13.09,5.92,13.09s3.41-1.86,4.96-0.31
			c1.55,1.55,1.86,3.41,1.86,3.41s36.8-4.96,39.28-2.17c2.48,2.79,1.86,7.44,1.24,10.54c-0.62,3.1-0.31,3.1-4.03,4.65
			c-3.72,1.55-40.28,11.7-50.82,13.25c-10.54,1.55-9.94-7.98-9.94-7.98s2.79-23.56-9.61-39.07c-12.4-15.5-15.88-21.85-17.55-26.89
			C165.32,324.08,170.86,323.05,170.86,323.05z"/>
		<path style="fill:none;stroke:#263238;stroke-linecap:round;stroke-linejoin:round;stroke-miterlimit:10;" d="M218.43,376.79
			c0,0-7.16,10.88-9.55,13.53"/>
		
			<line style="fill:none;stroke:#263238;stroke-linecap:round;stroke-linejoin:round;stroke-miterlimit:10;" x1="211.27" y1="375.46" x2="206.22" y2="379.97"/>
		<path style="fill:#263238;stroke:#263238;stroke-linecap:round;stroke-linejoin:round;stroke-miterlimit:10;" d="M116.94,354.63
			l-26.89,7.2c-2.43,0.65-4.61,2.01-6.26,3.92l0,0c-2.85,3.29-3.8,7.81-2.51,11.96l23.63,76.42l32.59-16.98L116.94,354.63z"/>
		<path style="fill:#FFFFFF;stroke:#263238;stroke-linecap:round;stroke-linejoin:round;stroke-miterlimit:10;" d="M182.18,333.26
			c0,0,1.66,3.31,11.04,12.7c8.7,8.7,11.96,19.22,9.95,31.49c-1.59,9.73-1.44,19.96-3.48,29.65l-62.2,30.05l-21.86-96.44
			c0,0,18.5-11.32,30.37-15.19c11.87-3.87,20.98-3.31,24.85-2.48c3.87,0.83,6.63,1.66,6.63,1.66"/>
		<path style="fill:none;stroke:#263238;stroke-linecap:round;stroke-linejoin:round;stroke-miterlimit:10;" d="M177.72,351.67
			c0,0,13.33,13.02,14.26,20.46c0.93,7.44-0.31,26.04-0.31,26.04"/>
		<g>
			<path style="fill:#FFFFFF;stroke:#263238;stroke-linecap:round;stroke-linejoin:round;stroke-miterlimit:10;" d="M174.45,347.9
				l1.66-17.12l-9.11-1.66c0,0-2.76,3.87-1.1,9.39C167.54,344.03,174.45,347.9,174.45,347.9z"/>
			<polygon style="fill:#FFFFFF;stroke:#263238;stroke-linecap:round;stroke-linejoin:round;stroke-miterlimit:10;" points="
				176.1,330.78 183.83,342.1 175.28,340.99 			"/>
		</g>
		<path style="fill:#FFFFFF;stroke:#263238;stroke-linecap:round;stroke-linejoin:round;stroke-miterlimit:10;" d="M181.9,262.03
			c0,0,2.48,4.97,2.76,8.84c0.28,3.87-1.1,5.8,1.1,8.28c2.21,2.48,10.22,1.93,8.56,5.52c-1.66,3.59-4.42,6.07-4.42,6.07
			s-1.66,8.84-2.48,14.63c-0.83,5.8-0.28,6.35-3.31,6.9c-3.04,0.55-8.28-0.28-8.28-0.28s-4.14,6.07-5.8,14.08
			c-1.66,8.01-0.28,13.81-0.28,13.81l-15.19-8.28c0,0-5.8,1.93-8.84-9.94c-3.04-11.87,5.8-46.94,11.32-54.12
			C162.57,260.37,181.9,262.03,181.9,262.03z"/>
		<path style="fill:#263238;stroke:#263238;stroke-linecap:round;stroke-linejoin:round;stroke-miterlimit:10;" d="M158.71,277.77
			c0,0,1.93,8.28,0.83,9.94c-1.1,1.66-5.52-4.14-5.52-4.14S156.78,274.18,158.71,277.77z"/>
		<g>
			<polygon style="fill:#FFFFFF;stroke:#263238;stroke-linecap:round;stroke-linejoin:round;stroke-miterlimit:10;" points="
				154.57,331.61 168.1,334.37 174.45,347.9 167.54,344.03 164.23,355.9 142.97,332.71 			"/>
			<polygon style="fill:#FFFFFF;stroke:#263238;stroke-linecap:round;stroke-linejoin:round;stroke-miterlimit:10;" points="
				167.54,344.03 168.1,334.37 174.45,347.9 			"/>
		</g>
		<path style="fill:#263238;stroke:#263238;stroke-linecap:round;stroke-linejoin:round;stroke-miterlimit:10;" d="M150.77,300.08
			c1.95,3.74,6.21,1.24,6.21,1.24l11.12,6.82l-8.84-3.31l-12.42,9.66C146.84,314.49,147.05,292.94,150.77,300.08z"/>
		<path style="fill:none;stroke:#263238;stroke-linecap:round;stroke-linejoin:round;stroke-miterlimit:10;" d="M186.6,296.26
			c0,0-5.8,1.66-7.45-1.1"/>
		<path style="fill:#263238;" d="M182.12,278.61c0.51,1.68,0.33,3.22-0.4,3.44c-0.73,0.22-1.73-0.96-2.24-2.64
			c-0.51-1.68-0.33-3.22,0.4-3.44C180.6,275.75,181.61,276.93,182.12,278.61z"/>
		<path style="fill:none;stroke:#263238;stroke-linecap:round;stroke-linejoin:round;stroke-miterlimit:10;" d="M176.38,273.9
			c0,0,2.49-3.87,6.07-1.66"/>
		<path style="fill:#263238;stroke:#263238;stroke-linecap:round;stroke-linejoin:round;stroke-miterlimit:10;" d="M185.49,254.3
			c0,0,0.28,2.21-3.59,7.73c-3.87,5.52-19.05,12.42-23.19,15.74c-4.14,3.31-9.39,31.48-8.56,38.93c0.83,7.45,1.66,10.22,5.8,10.22
			c4.14,0,6.9-3.31,6.9-3.31s-1.38,12.42-7.73,14.91c-6.35,2.48-14.36-2.49-21.26-1.93c-6.9,0.55-13.53,6.63-16.84,9.11
			c-3.31,2.48-4.69,4.69-11.32,0.83c-6.63-3.87-3.87-9.66-3.87-9.66s5.8,3.04,9.11-4.14c3.31-7.18,5.8-1.93,2.76-19.05
			c-3.04-17.12-3.87-27.06,6.35-45.83c10.22-18.77,22.64-20.71,22.64-20.71S157.33,245.19,185.49,254.3z"/>
		<g>
			<g>
				<path style="fill:#FFFFFF;stroke:#263238;stroke-linecap:round;stroke-linejoin:round;stroke-miterlimit:10;" d="M220.56,412.78
					c0,0,25.68-10.77,27.61-10.77c1.93,0,19.05,8.28,19.05,8.28l1.1,1.93c0,0,1.1,0.55,0.28,2.21c-0.83,1.66-6.35,1.38-6.35,1.38
					s4.42,0.83,2.48,1.93c-1.93,1.1-16.57,0-16.57,0s-6.35,3.59-12.7,4.69c-6.35,1.1-16.29-0.55-16.29-0.55L220.56,412.78z"/>
				
					<line style="fill:none;stroke:#263238;stroke-linecap:round;stroke-linejoin:round;stroke-miterlimit:10;" x1="268.32" y1="412.23" x2="251.4" y2="404.87"/>
				
					<line style="fill:none;stroke:#263238;stroke-linecap:round;stroke-linejoin:round;stroke-miterlimit:10;" x1="268.6" y1="414.44" x2="250.74" y2="408.36"/>
				<path style="fill:none;stroke:#263238;stroke-linecap:round;stroke-linejoin:round;stroke-miterlimit:10;" d="M262.25,415.82
					c0,0-6.98-1.79-8.21-2.07c-1.23-0.28-3.02-0.28-3.78-0.19"/>
			</g>
			<polygon style="fill:#FFFFFF;stroke:#263238;stroke-linecap:round;stroke-linejoin:round;stroke-miterlimit:10;" points="
				211.17,411.95 220.56,412.78 219.73,423.82 210.62,424.38 			"/>
			<path style="fill:#FFFFFF;stroke:#263238;stroke-linecap:round;stroke-linejoin:round;stroke-miterlimit:10;" d="M152.36,340.99
				c0,0-11.04-11.32-17.67-11.87c-6.63-0.55-21.26,3.31-21.26,20.71c0,17.39,8.56,45.28,9.66,63.23c1.1,17.95,9.11,28.16,11.6,27.89
				c2.48-0.28,33.13-1.93,51.36-7.45c18.22-5.52,23.19-5.8,24.57-9.11c1.38-3.31,1.93-9.39,0.55-12.42
				c-1.38-3.04-54.12-2.21-55.22-2.21s-8.56-51.36-8.56-51.36"/>
			<path style="fill:none;stroke:#263238;stroke-linecap:round;stroke-linejoin:round;stroke-miterlimit:10;" d="M153.19,410.02
				c0,0-11.87,3.59-17.67,10.77"/>
			<path style="fill:none;stroke:#263238;stroke-linecap:round;stroke-linejoin:round;stroke-miterlimit:10;" d="M151.81,407.53
				c0,0-11.87,1.93-16.84,5.52"/>
		</g>
	</g>
</g>
<g id="Mug_2">
	<g>
		<path style="fill:#ADADAD;stroke:#263238;stroke-linecap:round;stroke-linejoin:round;stroke-miterlimit:10;" d="M565.76,424.05
			c0,0,7.43-1.77,7.41,3.54c-0.02,5.31-1.89,12.73-4.65,14.15c-2.76,1.41-7.49-1.41-7.49-1.41l-0.06-3.18c0,0,6.14,2.83,7.36-1.41
			c1.22-4.24,1.66-8.14-4.57-7.07"/>
		<path style="fill:#ADADAD;stroke:#263238;stroke-linecap:round;stroke-linejoin:round;stroke-miterlimit:10;" d="M566.78,419.28
			l-2.39,28.3c0,2.21-5.58,4.01-12.46,4.01c-6.88,0-12.46-1.79-12.46-4.01l-2.39-28.3H566.78z"/>
		
			<ellipse style="fill:#FFFFFF;stroke:#263238;stroke-linecap:round;stroke-linejoin:round;stroke-miterlimit:10;" cx="551.92" cy="419.28" rx="14.86" ry="4.77"/>
		<path style="fill:#FFFFFF;stroke:#263238;stroke-linecap:round;stroke-linejoin:round;stroke-miterlimit:10;" d="M546.92,422.46
			c1.54,0.19,3.23,0.3,5,0.3c4.9,0,9.16-0.82,11.3-2.03"/>
		<path style="fill:#FFFFFF;stroke:#263238;stroke-linecap:round;stroke-linejoin:round;stroke-miterlimit:10;" d="M540.17,420.45
			c0.7,0.49,1.73,0.93,3.01,1.29"/>
	</g>
</g>
<g id="Mug_1">
	<g>
		<path style="fill:#ADADAD;stroke:#263238;stroke-linecap:round;stroke-linejoin:round;stroke-miterlimit:10;" d="M212.95,430.1
			c0,0-7.21-1.78-7.63,3.58c-0.42,5.36,0.81,12.87,3.43,14.3c2.62,1.43,7.53-1.44,7.53-1.44l0.32-3.22c0,0-6.31,2.87-7.17-1.42
			c-0.85-4.29-0.96-8.22,5.11-7.16"/>
		<path style="fill:#ADADAD;stroke:#263238;stroke-linecap:round;stroke-linejoin:round;stroke-miterlimit:10;" d="M211.21,425.43
			l2.39,28.3c0,2.21,5.58,4.01,12.46,4.01c6.88,0,12.46-1.79,12.46-4.01l2.39-28.3H211.21z"/>
		<path style="fill:#FFFFFF;stroke:#263238;stroke-linecap:round;stroke-linejoin:round;stroke-miterlimit:10;" d="M240.92,425.43
			c0,2.64-6.65,4.77-14.86,4.77c-8.2,0-14.86-2.14-14.86-4.77c0-2.64,6.65-4.77,14.86-4.77
			C234.27,420.65,240.92,422.79,240.92,425.43z"/>
		<path style="fill:#FFFFFF;stroke:#263238;stroke-linecap:round;stroke-linejoin:round;stroke-miterlimit:10;" d="M231.06,428.61
			c-1.54,0.19-3.23,0.3-5,0.3c-4.9,0-9.16-0.82-11.3-2.03"/>
		<path style="fill:#FFFFFF;stroke:#263238;stroke-linecap:round;stroke-linejoin:round;stroke-miterlimit:10;" d="M237.82,426.6
			c-0.7,0.49-1.73,0.93-3.01,1.29"/>
	</g>
</g>
</svg>
